<?xml version="1.0" encoding="UTF-8" standalone="no"?>
<!DOCTYPE svg PUBLIC "-//W3C//DTD SVG 1.1//EN" "http://www.w3.org/Graphics/SVG/1.1/DTD/svg11.dtd">
<svg width="100%" height="100%" viewBox="0 0 400 507" version="1.1" xmlns="http://www.w3.org/2000/svg" xmlns:xlink="http://www.w3.org/1999/xlink" xml:space="preserve" xmlns:serif="http://www.serif.com/" style="fill-rule:evenodd;clip-rule:evenodd;stroke-linejoin:round;stroke-miterlimit:2;">
    <g transform="matrix(1.16436,0,0,1.16436,-13.7772,488.95)">
        <path d="M11.832,0L11.832,-5.686L23.204,-5.686L23.204,-50.557L11.832,-47.714L11.832,-53.553L30.81,-58.279L30.81,-5.686L42.182,-5.686L42.182,0L11.832,0Z" style="fill:rgb(243,127,47);fill-rule:nonzero;"/>
        <path d="M81.444,1.421C72.608,1.421 65.783,-1.172 60.968,-6.358C56.153,-11.544 53.745,-18.888 53.745,-28.39C53.745,-37.866 56.198,-45.217 61.102,-50.441C66.007,-55.666 72.915,-58.279 81.828,-58.279C86.925,-58.279 92.892,-57.446 99.73,-55.781L99.73,-48.213C91.945,-50.902 85.939,-52.247 81.713,-52.247C75.541,-52.247 70.764,-50.16 67.383,-45.985C64.003,-41.81 62.312,-35.92 62.312,-28.313C62.312,-21.065 64.118,-15.348 67.729,-11.16C71.34,-6.973 76.27,-4.879 82.52,-4.879C87.898,-4.879 93.661,-6.531 99.807,-9.835L99.807,-2.92C94.198,-0.026 88.077,1.421 81.444,1.421Z" style="fill:rgb(243,127,47);fill-rule:nonzero;"/>
        <path d="M133.268,-5.302C128.735,-1.127 124.368,0.96 120.168,0.96C116.711,0.96 113.842,-0.122 111.563,-2.286C109.283,-4.45 108.144,-7.184 108.144,-10.488C108.144,-15.047 110.058,-18.549 113.887,-20.995C117.716,-23.441 123.203,-24.664 130.349,-24.664L132.154,-24.664L132.154,-29.696C132.154,-34.537 129.67,-36.957 124.701,-36.957C120.706,-36.957 116.391,-35.728 111.755,-33.269L111.755,-39.531C116.852,-41.606 121.628,-42.643 126.084,-42.643C130.746,-42.643 134.184,-41.593 136.399,-39.493C138.615,-37.392 139.722,-34.127 139.722,-29.696L139.722,-10.795C139.722,-6.467 141.054,-4.303 143.718,-4.303C144.051,-4.303 144.537,-4.354 145.178,-4.456L145.715,-0.269C144,0.551 142.104,0.96 140.03,0.96C136.495,0.96 134.242,-1.127 133.268,-5.302ZM132.154,-9.412L132.154,-20.207L129.619,-20.284C125.47,-20.284 122.115,-19.497 119.554,-17.922C116.992,-16.346 115.712,-14.278 115.712,-11.717C115.712,-9.899 116.352,-8.362 117.633,-7.107C118.913,-5.852 120.476,-5.225 122.32,-5.225C125.47,-5.225 128.748,-6.621 132.154,-9.412Z" style="fill:rgb(243,127,47);fill-rule:nonzero;"/>
        <path d="M181.981,0L181.981,-7.837C178.908,-1.972 174.272,0.96 168.074,0.96C163.054,0.96 159.104,-0.871 156.223,-4.533C153.341,-8.196 151.901,-13.203 151.901,-19.554C151.901,-26.495 153.533,-32.078 156.799,-36.304C160.064,-40.53 164.36,-42.643 169.688,-42.643C174.631,-42.643 178.728,-40.748 181.981,-36.957L181.981,-60.66L189.588,-60.66L189.588,0L181.981,0ZM181.981,-31.771C178.063,-35.228 174.349,-36.957 170.84,-36.957C163.592,-36.957 159.968,-31.412 159.968,-20.323C159.968,-10.565 163.195,-5.686 169.649,-5.686C173.849,-5.686 177.96,-7.978 181.981,-12.562L181.981,-31.771Z" style="fill:rgb(243,127,47);fill-rule:nonzero;"/>
        <path d="M235.304,-1.345C230.233,0.192 225.892,0.96 222.28,0.96C216.134,0.96 211.12,-1.082 207.24,-5.167C203.36,-9.252 201.42,-14.547 201.42,-21.052C201.42,-27.378 203.13,-32.565 206.549,-36.611C209.968,-40.658 214.341,-42.681 219.668,-42.681C224.714,-42.681 228.613,-40.888 231.366,-37.303C234.119,-33.717 235.496,-28.621 235.496,-22.013L235.457,-19.669L209.142,-19.669C210.243,-9.758 215.096,-4.802 223.702,-4.802C226.852,-4.802 230.719,-5.647 235.304,-7.338L235.304,-1.345ZM209.488,-25.355L227.889,-25.355C227.889,-33.115 224.995,-36.996 219.207,-36.996C213.393,-36.996 210.153,-33.115 209.488,-25.355Z" style="fill:rgb(243,127,47);fill-rule:nonzero;"/>
        <path d="M248.558,0L248.558,-41.721L256.126,-41.721L256.126,-33.884C259.814,-39.723 264.552,-42.643 270.34,-42.643C275.923,-42.643 279.727,-39.723 281.75,-33.884C285.335,-39.749 289.997,-42.681 295.734,-42.681C299.422,-42.681 302.277,-41.599 304.301,-39.435C306.324,-37.271 307.336,-34.242 307.336,-30.349L307.336,0L299.729,0L299.729,-29.158C299.729,-33.922 297.847,-36.304 294.082,-36.304C290.163,-36.304 286.053,-33.525 281.75,-27.968L281.75,0L274.143,0L274.143,-29.158C274.143,-33.948 272.222,-36.342 268.381,-36.342C264.565,-36.342 260.48,-33.551 256.126,-27.968L256.126,0L248.558,0Z" style="fill:rgb(243,127,47);fill-rule:nonzero;"/>
        <path d="M324.431,15.175L331.192,0L315.057,-41.721L323.24,-41.721L335.188,-10.296L347.942,-41.721L355.088,-41.721L332.307,15.175L324.431,15.175Z" style="fill:rgb(243,127,47);fill-rule:nonzero;"/>
    </g>
    <g transform="matrix(1.33333,0,0,1.33333,-28.1446,-76.2933)">
        <path d="M182.65,59.04C185.03,58.88 188.44,58.77 193.28,58.73C196.13,58.87 199.56,59.27 203.36,60.22C208.7,61.56 212.98,63.54 216.1,65.29L216.25,65.43C218.88,67 222.5,69.34 226.51,72.59C232.23,77.23 242.83,86.04 248.83,100.93C250.03,103.9 251.61,107.9 252.32,113.43C252.93,118.18 252.65,122.51 252.09,131.19C251.62,138.37 251.26,139.39 251.64,142.76C251.95,145.51 252.34,149.98 255.02,154.33C257.06,157.63 258.79,158.35 265.28,164.61C270.9,170.03 269.57,169.45 272.95,172.44C279.61,178.32 283.08,179.04 285.28,184.04C285.69,184.98 285.92,185.75 286,186.07C286.14,186.6 287.12,190.52 285.57,194.16C284.56,196.54 283.65,196.03 280.38,200C278.52,202.25 277.21,203.86 276.32,206.43C276.01,207.31 275.2,209.92 275.53,213.32C275.71,215.15 275.9,217.21 277.22,219.16C279.26,222.18 281.74,221.58 283.65,224.88C284.1,225.66 284.82,226.95 284.72,228.62C284.55,231.33 282.31,233.21 281.73,233.7C279.98,235.17 279.17,234.74 277.74,236.37C277.23,236.96 276.07,238.28 276.31,239.8C276.46,240.73 277.07,241.33 277.59,241.82C279.61,243.75 281.35,242.91 282.55,244.54C283.31,245.57 283.3,246.84 283.3,247.73C283.3,248.33 283.21,249.9 282.25,251.39C281.47,252.59 280.68,252.86 279.84,253.57C277.41,255.63 277.13,259.27 276.98,261.2C276.71,264.7 277.78,266.1 278.33,269.3C279.62,276.83 276.12,283.35 275.47,284.57C272.2,290.65 266.98,293.47 264.94,294.54C257.63,298.37 248.82,298 231.18,297.26C230.34,297.23 227.96,297.12 224.8,297.42C224.8,297.42 222.41,297.64 219.98,298.14C217.36,298.67 210.97,299.94 204.94,303.75C194.05,310.64 189.57,321.02 188.09,324.94L185.53,327.59C183.53,328.84 180.58,330.45 176.81,331.72C174.04,332.65 171.71,333.09 167.64,333.67C160.97,334.61 157.06,335.17 151.4,335.39C142.32,335.74 135.47,334.94 129.75,334.31C119.75,333.2 110.78,331.36 103,329.28L112.66,330.33C117.22,330.74 122.48,331.04 128.82,330.81C134.53,330.6 138.48,330.06 145.2,329.14C149.31,328.58 151.65,328.15 154.45,327.24C158.26,326.01 161.23,324.44 163.25,323.22L165.83,320.65C167.32,316.84 171.84,306.75 182.83,300.05C188.91,296.34 195.36,295.11 198,294.59C200.45,294.11 202.87,293.89 202.87,293.89C206.06,293.6 208.46,293.7 209.3,293.74C227.09,294.45 235.98,294.81 243.36,291.09C245.42,290.05 250.68,287.31 253.98,281.4C254.64,280.22 258.17,273.88 256.87,266.56C256.32,263.45 255.23,262.09 255.51,258.69C255.66,256.81 255.95,253.27 258.39,251.27C259.23,250.58 260.03,250.32 260.82,249.15C261.8,247.7 261.88,246.17 261.88,245.59C261.88,244.72 261.89,243.49 261.12,242.49C259.9,240.9 258.15,241.71 256.11,239.84C255.59,239.36 254.97,238.78 254.82,237.87C254.58,236.39 255.74,235.11 256.26,234.54C257.7,232.95 258.52,233.38 260.28,231.95C260.87,231.47 263.13,229.64 263.3,227.01C263.41,225.39 262.68,224.14 262.22,223.38C260.29,220.17 257.8,220.76 255.74,217.82C254.41,215.93 254.21,213.92 254.04,212.14C253.71,208.83 254.53,206.3 254.84,205.44C255.74,202.94 257.07,201.38 258.94,199.19C262.24,195.33 263.16,195.83 264.18,193.51C265.74,189.97 264.75,186.16 264.61,185.64C264.52,185.33 264.29,184.57 263.88,183.67C261.67,178.81 258.16,178.11 251.44,172.39C248.03,169.49 249.37,170.05 243.71,164.78C237.16,158.7 235.41,158 233.36,154.79C230.65,150.56 230.26,146.22 229.95,143.55C229.57,140.28 229.94,139.29 230.41,132.31C230.98,123.88 231.26,119.66 230.64,115.05C229.92,109.67 228.33,105.79 227.12,102.9C221.07,88.43 210.37,79.86 204.6,75.35C201.92,73.25 199.41,71.54 197.25,70.19C195.46,68.58 192.7,66.39 188.96,64.47C182.62,61.22 177.53,60.84 177.58,60.05C177.6,59.78 178.19,59.51 180.04,59.28L182.65,59.04Z" style="fill:rgb(243,127,47);fill-rule:nonzero;"/>
    </g>
    <g transform="matrix(1.33333,0,0,1.33333,-28.1446,-76.2933)">
        <path d="M165.59,333.93C160.65,334.62 157.17,335.07 152.79,335.29" style="fill:rgb(243,127,47);fill-rule:nonzero;"/>
    </g>
    <g transform="matrix(1.33333,0,0,1.33333,-28.1446,-76.2933)">
        <path d="M103.34,329.29C103.26,329.27 103.18,329.25 103.11,329.23L112.77,330.28C117.33,330.69 122.59,330.99 128.93,330.76C134.64,330.55 138.59,330.01 145.31,329.09C149.42,328.53 151.76,328.1 154.56,327.19C158.37,325.96 161.34,324.39 163.36,323.17L165.94,320.6C167.43,316.79 171.95,306.7 182.94,300C189.02,296.29 195.47,295.06 198.11,294.54C200.56,294.06 202.98,293.84 202.98,293.84C206.17,293.55 208.57,293.65 209.41,293.69C227.2,294.4 236.09,294.76 243.47,291.04C245.53,290 250.79,287.26 254.09,281.35C254.75,280.17 258.28,273.83 256.98,266.51C256.43,263.4 255.34,262.04 255.62,258.64C255.77,256.76 256.06,253.22 258.5,251.22C259.34,250.53 260.14,250.27 260.93,249.1C261.91,247.65 261.99,246.12 261.99,245.54C261.99,244.67 262,243.44 261.23,242.44C260.01,240.85 258.26,241.66 256.22,239.79C255.7,239.31 255.08,238.73 254.93,237.82C254.69,236.34 255.85,235.06 256.37,234.49C257.81,232.9 258.63,233.33 260.39,231.9C260.98,231.42 263.24,229.59 263.41,226.96C263.52,225.34 262.79,224.09 262.33,223.33C260.4,220.12 257.91,220.71 255.85,217.77C254.52,215.88 254.32,213.87 254.15,212.09C253.82,208.78 254.64,206.25 254.95,205.39C255.85,202.89 257.18,201.33 259.05,199.14C262.35,195.28 263.27,195.78 264.29,193.46C265.85,189.92 264.86,186.11 264.72,185.59C264.63,185.28 264.4,184.52 263.99,183.62C261.78,178.76 258.27,178.06 251.55,172.34C248.14,169.44 249.48,170 243.82,164.73C237.27,158.65 235.52,157.95 233.47,154.74C230.76,150.51 230.37,146.17 230.06,143.5C229.68,140.23 230.05,139.24 230.52,132.26C231.09,123.83 231.37,119.61 230.75,115C230.03,109.62 228.44,105.74 227.23,102.85C221.18,88.38 210.48,79.81 204.71,75.3C202.03,73.2 199.52,71.49 197.36,70.14C195.57,68.53 192.81,66.34 189.07,64.42C182.73,61.17 177.64,60.79 177.69,60C177.71,59.73 178.3,59.46 180.15,59.23L182.75,58.99C185.13,58.83 188.54,58.72 193.38,58.68C196.23,58.82 199.66,59.22 203.46,60.17C208.8,61.51 213.08,63.49 216.2,65.24L216.35,65.38C218.98,66.95 222.6,69.29 226.61,72.54C232.33,77.18 242.93,85.99 248.93,100.88C250.13,103.85 251.71,107.85 252.42,113.38C253.03,118.13 252.75,122.46 252.19,131.14C251.72,138.32 251.36,139.34 251.74,142.71C252.05,145.46 252.44,149.93 255.12,154.28C257.16,157.58 258.89,158.3 265.38,164.56C271,169.98 269.67,169.4 273.05,172.39C279.71,178.27 283.18,178.99 285.38,183.99C285.79,184.93 286.02,185.7 286.1,186.02C286.24,186.55 287.22,190.47 285.67,194.11C284.66,196.49 283.75,195.98 280.48,199.95C278.62,202.2 277.31,203.81 276.42,206.38C276.11,207.26 275.3,209.87 275.63,213.27C275.81,215.1 276,217.16 277.32,219.11C279.36,222.13 281.84,221.53 283.75,224.83C284.2,225.61 284.92,226.9 284.82,228.57C284.65,231.28 282.41,233.16 281.83,233.65C280.08,235.12 279.27,234.69 277.84,236.32C277.33,236.91 276.17,238.23 276.41,239.75C276.56,240.68 277.17,241.28 277.69,241.77C279.71,243.7 281.45,242.86 282.65,244.49C283.41,245.52 283.4,246.79 283.4,247.68C283.4,248.28 283.31,249.85 282.35,251.34C281.57,252.54 280.78,252.81 279.94,253.52C277.51,255.58 277.23,259.22 277.08,261.15C276.81,264.65 277.88,266.05 278.43,269.25C279.72,276.78 276.22,283.3 275.57,284.52C272.3,290.6 267.08,293.42 265.04,294.49C257.73,298.32 248.92,297.95 231.28,297.21C230.44,297.18 228.06,297.07 224.9,297.37C224.9,297.37 222.51,297.59 220.08,298.09C217.46,298.62 211.07,299.89 205.04,303.7C194.15,310.59 189.67,320.97 188.19,324.89L185.63,327.54C183.63,328.79 180.68,330.4 176.91,331.67C174.14,332.6 171.81,333.04 167.74,333.62C166.99,333.73 166.28,333.83 165.59,333.92" style="fill:rgb(243,127,47);fill-rule:nonzero;"/>
    </g>
    <g transform="matrix(1.33333,0,0,1.33333,-28.1446,-76.2933)">
        <path d="M166.29,333.82C166.74,333.76 167.2,333.69 167.68,333.62C171.75,333.04 174.08,332.6 176.85,331.67C180.63,330.4 183.57,328.79 185.57,327.54L188.13,324.89C189.6,320.97 194.09,310.59 204.97,303.71C211,299.9 217.39,298.64 220.01,298.1C222.44,297.6 224.83,297.38 224.83,297.38C227.99,297.08 230.37,297.19 231.21,297.23C234.59,297.37 237.65,297.5 240.44,297.59L241.09,297.52C242.23,297.58 243.41,297.61 244.6,297.61C251.48,297.61 257.69,296.63 263.07,295.25L263.64,295.16C264.09,294.96 264.53,294.75 264.97,294.52C267.01,293.45 272.23,290.63 275.5,284.55C276.15,283.34 279.65,276.82 278.36,269.29C277.81,266.09 276.74,264.7 277.01,261.19C277.16,259.26 277.44,255.62 279.87,253.56C280.7,252.85 281.49,252.58 282.28,251.38C283.25,249.89 283.33,248.32 283.33,247.72C283.33,246.82 283.34,245.56 282.58,244.53C281.37,242.9 279.64,243.73 277.62,241.8C277.1,241.3 276.49,240.71 276.34,239.78C276.1,238.26 277.25,236.94 277.77,236.35C279.2,234.72 280.01,235.15 281.75,233.68C282.33,233.19 284.57,231.31 284.74,228.6C284.84,226.93 284.12,225.64 283.67,224.86C281.76,221.55 279.28,222.16 277.24,219.14C275.92,217.19 275.72,215.13 275.55,213.3C275.22,209.9 276.03,207.29 276.34,206.41C277.23,203.84 278.55,202.24 280.4,199.99C283.67,196.02 284.58,196.53 285.59,194.15C287.13,190.51 286.15,186.59 286.01,186.06C285.93,185.74 285.7,184.96 285.29,184.03C283.09,179.03 279.62,178.31 272.96,172.43C269.58,169.45 270.91,170.02 265.29,164.6C258.8,158.34 257.07,157.62 255.03,154.32C252.35,149.97 251.96,145.51 251.65,142.76C251.27,139.4 251.64,138.37 252.1,131.2C252.66,122.53 252.94,118.19 252.33,113.45C251.61,107.92 250.03,103.93 248.84,100.95C242.84,86.06 232.23,77.25 226.51,72.61C222.5,69.36 218.88,67.01 216.25,65.45L216.1,65.31C212.98,63.56 208.69,61.57 203.35,60.24C199.55,59.29 196.12,58.89 193.27,58.75C191.5,58.76 189.92,58.79 188.51,58.82L182.75,59.47L186.29,58.73C191.74,57.86 196.29,57.91 199.55,58.15C210,58.91 217.87,62.44 223.87,65.15C227.79,66.92 231.28,68.84 234.32,70.74L234.88,71.17C238.13,73.35 241.53,75.83 244.99,78.67C246.62,80.01 248.17,81.34 249.64,82.67L249.77,82.78C256.29,87.47 264.88,94.83 270.47,105.96C271.88,108.77 273.75,112.55 274.72,117.84C275.56,122.38 275.4,126.56 275.09,134.92C274.83,141.84 274.47,142.84 275,146.05C275.43,148.68 276.01,152.96 279.09,157.03C281.43,160.12 283.34,160.75 290.65,166.51C296.97,171.5 295.5,171 299.29,173.73C306.77,179.12 310.58,179.68 313.15,184.4C313.63,185.28 313.91,186.02 314.01,186.32C314.18,186.83 315.38,190.55 313.83,194.11C312.81,196.44 311.8,195.98 308.37,199.93C306.42,202.17 305.04,203.76 304.16,206.27C303.86,207.13 303.06,209.67 303.54,212.93C303.8,214.68 304.08,216.66 305.59,218.48C307.92,221.3 310.6,220.63 312.81,223.73C313.33,224.46 314.16,225.67 314.11,227.28C314.02,229.89 311.64,231.79 311.02,232.28C309.16,233.76 308.26,233.38 306.76,235C306.22,235.59 305,236.9 305.32,238.35C305.51,239.24 306.2,239.79 306.79,240.25C309.06,242.02 310.93,241.15 312.3,242.67C313.17,243.63 313.2,244.85 313.23,245.71C313.25,246.28 313.21,247.8 312.21,249.27C311.4,250.46 310.54,250.75 309.66,251.46C307.08,253.53 306.9,257.04 306.81,258.91C306.63,262.29 307.86,263.59 308.57,266.64C310.25,273.83 306.65,280.23 305.98,281.42C302.62,287.39 297.03,290.31 294.84,291.42C293.75,291.97 292.62,292.45 291.44,292.85L277.26,296C266.48,299.69 257.98,300.52 252.12,300.56C247.58,300.6 240.37,300.21 231.39,303.16C228.82,304.01 226.77,304.91 225.44,305.54L225.04,305.83C216.77,312.45 213.27,320.35 212.01,323.63L209.31,326.28C207.17,327.56 204.01,329.23 199.93,330.59C196.93,331.59 194.41,332.11 189.98,332.82C182.74,333.99 178.48,334.67 172.31,335.11C169.19,335.33 166.3,335.43 163.61,335.45L154.13,335.48" style="fill:rgb(242,170,121);fill-rule:nonzero;"/>
    </g>
    <g transform="matrix(1.33333,0,0,1.33333,-28.1446,-76.2933)">
        <circle cx="49.47" cy="165.95" r="16.55" style="fill:rgb(243,127,47);"/>
    </g>
    <g transform="matrix(1.33333,0,0,1.33333,-28.1446,-76.2933)">
        <path d="M51.25,165.02L90.64,244.76L47.7,166.88C47.17,165.91 47.52,164.7 48.49,164.16C49.46,163.63 50.67,163.98 51.21,164.95C51.22,164.97 51.23,165 51.25,165.02Z" style="fill:rgb(242,127,45);fill-rule:nonzero;"/>
    </g>
    <g transform="matrix(1.33333,0,0,1.33333,-28.1446,-76.2933)">
        <circle cx="71.48" cy="90.68" r="13.5" style="fill:rgb(243,127,47);"/>
    </g>
    <g transform="matrix(1.33333,0,0,1.33333,-28.1446,-76.2933)">
        <circle cx="89.5" cy="239.58" r="13.5" style="fill:rgb(243,127,47);"/>
    </g>
    <g transform="matrix(1.33333,0,0,1.33333,-28.1446,-76.2933)">
        <path d="M90.24,237.65L151.32,264.28L88.76,241.37C87.72,240.99 87.19,239.84 87.57,238.8C87.95,237.76 89.1,237.23 90.14,237.61C90.17,237.62 90.21,237.64 90.24,237.65Z" style="fill:rgb(242,127,45);fill-rule:nonzero;"/>
    </g>
    <g transform="matrix(1.33333,0,0,1.33333,-28.1446,-76.2933)">
        <path d="M91.46,239.36L104.45,310.52L87.54,240.19C87.28,239.12 87.94,238.04 89.02,237.78C90.09,237.52 91.17,238.18 91.43,239.26C91.44,239.29 91.45,239.33 91.46,239.36Z" style="fill:rgb(242,127,45);fill-rule:nonzero;"/>
    </g>
    <g transform="matrix(1.33333,0,0,1.33333,-28.1446,-76.2933)">
        <circle cx="149.87" cy="264.21" r="8.68" style="fill:rgb(243,127,47);"/>
    </g>
    <g transform="matrix(1.33333,0,0,1.33333,-28.1446,-76.2933)">
        <circle cx="104.45" cy="306.41" r="8.68" style="fill:rgb(243,127,47);"/>
    </g>
    <g transform="matrix(1.33333,0,0,1.33333,-28.1446,-76.2933)">
        <path d="M88.53,237.95L140.6,203.78L90.83,241.22C89.95,241.88 88.69,241.71 88.03,240.82C87.37,239.94 87.54,238.68 88.43,238.02C88.46,238 88.5,237.97 88.53,237.95Z" style="fill:rgb(242,127,45);fill-rule:nonzero;"/>
    </g>
    <g transform="matrix(1.33333,0,0,1.33333,-28.1446,-76.2933)">
        <circle cx="136.21" cy="207.06" r="8.68" style="fill:rgb(243,127,47);"/>
    </g>
    <g transform="matrix(1.33333,0,0,1.33333,-28.1446,-76.2933)">
        <path d="M73.4,91.23L49.47,167.5L69.55,90.13C69.83,89.06 70.92,88.42 71.99,88.7C73.06,88.98 73.7,90.07 73.42,91.14C73.42,91.16 73.41,91.2 73.4,91.23Z" style="fill:rgb(242,127,45);fill-rule:nonzero;"/>
    </g>
    <g transform="matrix(1.33333,0,0,1.33333,-28.1446,-76.2933)">
        <path d="M72.11,88.12L160.45,119.47L70.85,91.91C69.79,91.59 69.2,90.47 69.53,89.41C69.86,88.35 70.97,87.76 72.03,88.09C72.05,88.1 72.08,88.11 72.11,88.12Z" style="fill:rgb(242,127,45);fill-rule:nonzero;"/>
    </g>
    <g transform="matrix(1.33333,0,0,1.33333,-28.1446,-76.2933)">
        <circle cx="161.19" cy="119.57" r="8.68" style="fill:rgb(243,127,47);"/>
    </g>
    <g transform="matrix(1.33333,0,0,1.33333,-28.1446,-76.2933)">
        <path d="M73.06,88.79L124.79,158.34L69.9,91.25C69.2,90.39 69.33,89.13 70.18,88.43C71.04,87.73 72.3,87.86 73,88.71C73.02,88.74 73.04,88.76 73.06,88.79Z" style="fill:rgb(242,127,45);fill-rule:nonzero;"/>
    </g>
    <g transform="matrix(1.33333,0,0,1.33333,-28.1446,-76.2933)">
        <circle cx="124.65" cy="159.27" r="8.68" style="fill:rgb(243,127,47);"/>
    </g>
    <g transform="matrix(1.33333,0,0,1.33333,-28.1446,-76.2933)">
        <path d="M70.95,88.09L155.28,66.73L72.02,91.94C70.96,92.26 69.85,91.66 69.53,90.61C69.21,89.55 69.81,88.44 70.86,88.12C70.88,88.11 70.92,88.1 70.95,88.09Z" style="fill:rgb(242,127,45);fill-rule:nonzero;"/>
    </g>
    <g transform="matrix(1.33333,0,0,1.33333,-28.1446,-76.2933)">
        <circle cx="155.73" cy="65.9" r="8.68" style="fill:rgb(243,127,47);"/>
    </g>
</svg>
