<?xml version="1.0" encoding="UTF-8"?><svg id="a" xmlns="http://www.w3.org/2000/svg" viewBox="0 0 527.97 143.67"><defs><style>.b{fill:#f27f2e;}.c{fill:#fff;}.d{fill:#f2aa79;}.e{fill:#f17f2d;}.f{stroke:#f27f2e;stroke-miterlimit:10;stroke-width:2px;}.g{isolation:isolate;}</style></defs><g><path class="b" d="M76.89,1.4c1.18-.1,2.94-.1,5.49-.2,1.47,.1,3.23,.29,5.19,.78,2.74,.69,4.9,1.67,6.56,2.64l.1,.1c1.37,.78,3.23,1.96,5.29,3.72,2.94,2.35,8.42,6.86,11.46,14.59,.59,1.57,1.47,3.62,1.76,6.46,.29,2.45,.2,4.7-.1,9.11-.2,3.72-.39,4.21-.2,5.97,.2,1.37,.39,3.72,1.76,5.97,1.08,1.67,1.96,2.06,5.29,5.29,2.84,2.74,2.15,2.45,3.92,4.02,3.43,3.04,5.19,3.43,6.37,5.97,.2,.49,.29,.88,.39,1.08,.1,.29,.59,2.25-.2,4.11-.49,1.18-.98,.98-2.64,3.04-.98,1.18-1.67,1.96-2.06,3.33-.2,.49-.59,1.76-.39,3.53,.1,.98,.2,1.96,.88,3.04,1.08,1.57,2.35,1.27,3.33,2.94,.2,.39,.59,1.08,.59,1.96-.1,1.37-1.27,2.35-1.57,2.64-.88,.78-1.27,.49-2.06,1.37-.29,.29-.88,.98-.69,1.76,.1,.49,.39,.78,.69,1.08,1.08,.98,1.96,.59,2.55,1.37,.39,.49,.39,1.18,.39,1.67,0,.29,0,1.08-.59,1.86-.39,.59-.78,.78-1.27,1.08-1.27,1.08-1.37,2.94-1.47,3.92-.1,1.76,.39,2.55,.69,4.11,.69,3.82-1.18,7.25-1.47,7.84-1.67,3.13-4.41,4.6-5.39,5.09-3.72,1.96-8.23,1.76-17.34,1.37-.39,0-1.67-.1-3.23,.1,0,0-1.27,.1-2.45,.39-1.37,.29-4.6,.88-7.74,2.84-5.58,3.53-7.93,8.91-8.62,10.87l-1.27,1.37c-.98,.69-2.55,1.47-4.51,2.15-1.47,.49-2.64,.69-4.7,.98-3.43,.49-5.39,.78-8.33,.88-4.7,.2-8.13-.2-11.07-.59-5.09-.59-9.7-1.47-13.71-2.55l5,.59c2.35,.2,5,.39,8.33,.29,2.94-.1,5-.39,8.42-.88,2.15-.29,3.33-.49,4.7-.98,1.96-.59,3.53-1.47,4.51-2.06l1.37-1.27c.78-1.96,3.13-7.15,8.72-10.58,3.13-1.86,6.46-2.55,7.84-2.84,1.27-.29,2.55-.39,2.55-.39,1.67-.2,2.84-.1,3.33-.1,9.11,.39,13.71,.59,17.53-1.37,1.08-.49,3.72-1.96,5.49-5,.29-.59,2.15-3.82,1.47-7.64-.29-1.57-.88-2.25-.69-4.02,.1-.98,.2-2.74,1.47-3.82,.39-.39,.88-.49,1.27-1.08,.49-.78,.59-1.57,.59-1.86,0-.49,0-1.08-.39-1.57-.59-.78-1.57-.39-2.55-1.37-.29-.29-.59-.59-.69-.98-.1-.78,.49-1.37,.78-1.67,.78-.78,1.18-.59,2.06-1.37,.29-.29,1.47-1.18,1.57-2.55,.1-.78-.29-1.47-.59-1.86-.98-1.67-2.25-1.37-3.33-2.84-.69-.98-.78-1.96-.88-2.94-.2-1.67,.29-3.04,.39-3.43,.49-1.27,1.18-2.06,2.06-3.23,1.67-1.96,2.15-1.76,2.64-2.94,.78-1.86,.29-3.82,.2-4.02,0-.2-.2-.59-.39-.98-1.18-2.45-2.94-2.84-6.37-5.78-1.76-1.47-1.08-1.18-4.02-3.92-3.33-3.13-4.31-3.53-5.29-5.09-1.37-2.15-1.57-4.41-1.76-5.78-.2-1.67,0-2.15,.2-5.78,.29-4.31,.39-6.46,.1-8.82-.39-2.74-1.18-4.8-1.76-6.27-3.13-7.44-8.62-11.85-11.56-14.1-1.37-1.08-2.64-1.96-3.82-2.64-.88-.78-2.35-1.96-4.21-2.94-3.23-1.67-5.88-1.86-5.88-2.25,0-.1,.29-.29,1.27-.39l.69-.59h0Z"/><path class="b" d="M68.17,142.54c-2.55,.39-4.31,.59-6.56,.69"/><path class="b" d="M36.14,140.19h-.1l5,.59c2.35,.2,5,.39,8.33,.29,2.94-.1,5-.39,8.42-.88,2.15-.29,3.33-.49,4.7-.98,1.96-.59,3.53-1.47,4.51-2.06l1.37-1.27c.78-1.96,3.13-7.15,8.72-10.58,3.13-1.86,6.46-2.55,7.84-2.84,1.27-.29,2.55-.39,2.55-.39,1.67-.2,2.84-.1,3.33-.1,9.11,.39,13.71,.59,17.53-1.37,1.08-.49,3.72-1.96,5.49-5,.29-.59,2.15-3.82,1.47-7.64-.29-1.57-.88-2.25-.69-4.02,.1-.98,.2-2.74,1.47-3.82,.39-.39,.88-.49,1.27-1.08,.49-.78,.59-1.57,.59-1.86,0-.49,0-1.08-.39-1.57-.59-.78-1.57-.39-2.55-1.37-.29-.29-.59-.59-.69-.98-.1-.78,.49-1.37,.78-1.67,.78-.78,1.18-.59,2.06-1.37,.29-.29,1.47-1.18,1.57-2.55,.1-.78-.29-1.47-.59-1.86-.98-1.67-2.25-1.37-3.33-2.84-.69-.98-.78-1.96-.88-2.94-.2-1.67,.29-3.04,.39-3.43,.49-1.27,1.18-2.06,2.06-3.23,1.67-1.96,2.15-1.76,2.64-2.94,.78-1.86,.29-3.82,.2-4.02,0-.2-.2-.59-.39-.98-1.18-2.45-2.94-2.84-6.37-5.78-1.76-1.47-1.08-1.18-4.02-3.92-3.33-3.13-4.31-3.53-5.29-5.09-1.37-2.15-1.57-4.41-1.76-5.78-.2-1.67,0-2.15,.2-5.78,.29-4.31,.39-6.46,.1-8.82-.39-2.74-1.18-4.8-1.76-6.27-3.13-7.44-8.62-11.85-11.56-14.1-1.37-1.08-2.64-1.96-3.82-2.64-.88-.78-2.35-1.96-4.21-2.94-3.23-1.67-5.88-1.86-5.88-2.25,0-.1,.29-.29,1.27-.39l1.37-.1c1.18-.1,2.94-.1,5.49-.2,1.47,.1,3.23,.29,5.19,.78,2.74,.69,4.9,1.67,6.56,2.64l.1,.1c1.37,.78,3.23,1.96,5.29,3.72,2.94,2.35,8.42,6.86,11.46,14.59,.59,1.57,1.47,3.62,1.76,6.46,.29,2.45,.2,4.7-.1,9.11-.2,3.72-.39,4.21-.2,5.97,.2,1.37,.39,3.72,1.76,5.97,1.08,1.67,1.96,2.06,5.29,5.29,2.84,2.74,2.15,2.45,3.92,4.02,3.43,3.04,5.19,3.43,6.37,5.97,.2,.49,.29,.88,.39,1.08,.1,.29,.59,2.25-.2,4.11-.49,1.18-.98,.98-2.64,3.04-.98,1.18-1.67,1.96-2.06,3.33-.2,.49-.59,1.76-.39,3.53,.1,.98,.2,1.96,.88,3.04,1.08,1.57,2.35,1.27,3.33,2.94,.2,.39,.59,1.08,.59,1.96-.1,1.37-1.27,2.35-1.57,2.64-.88,.78-1.27,.49-2.06,1.37-.29,.29-.88,.98-.69,1.76,.1,.49,.39,.78,.69,1.08,1.08,.98,1.96,.59,2.55,1.37,.39,.49,.39,1.18,.39,1.67,0,.29,0,1.08-.59,1.86-.39,.59-.78,.78-1.27,1.08-1.27,1.08-1.37,2.94-1.47,3.92-.1,1.76,.39,2.55,.69,4.11,.69,3.82-1.18,7.25-1.47,7.84-1.67,3.13-4.41,4.6-5.39,5.09-3.72,1.96-8.23,1.76-17.34,1.37-.39,0-1.67-.1-3.23,.1,0,0-1.27,.1-2.45,.39-1.37,.29-4.6,.88-7.74,2.84-5.58,3.53-7.93,8.91-8.62,10.87l-1.27,1.37c-.98,.69-2.55,1.47-4.51,2.15-1.47,.49-2.64,.69-4.7,.98-.39,.1-.78,.1-1.08,.2"/><path class="d" d="M68.47,142.54c.2,0,.49-.1,.69-.1,2.06-.29,3.33-.49,4.7-.98,1.96-.69,3.43-1.47,4.51-2.15l1.27-1.37c.78-2.06,3.04-7.35,8.62-10.87,3.13-1.96,6.37-2.64,7.74-2.84,1.27-.29,2.45-.39,2.45-.39,1.67-.2,2.84-.1,3.23-.1,1.76,.1,3.33,.1,4.7,.2h2.06c3.53,0,6.76-.49,9.5-1.18h.29c.2-.1,.49-.2,.69-.29,1.08-.59,3.72-1.96,5.39-5.09,.29-.59,2.15-4.02,1.47-7.84-.29-1.67-.78-2.35-.69-4.11,.1-.98,.2-2.84,1.47-3.92,.39-.39,.78-.49,1.27-1.08,.49-.78,.59-1.57,.59-1.86,0-.49,0-1.08-.39-1.67-.59-.88-1.47-.39-2.55-1.37-.29-.29-.59-.59-.69-1.08-.1-.78,.49-1.47,.69-1.76,.69-.88,1.18-.59,2.06-1.37,.29-.29,1.47-1.18,1.57-2.64,.1-.88-.29-1.57-.59-1.96-.98-1.67-2.25-1.37-3.33-2.94-.69-.98-.78-2.06-.88-3.04-.2-1.76,.29-3.13,.39-3.53,.49-1.27,1.18-2.15,2.06-3.33,1.67-2.06,2.15-1.76,2.64-3.04,.78-1.86,.29-3.92,.2-4.11,0-.2-.2-.59-.39-1.08-1.18-2.55-2.94-2.94-6.37-5.97-1.76-1.57-1.08-1.27-3.92-4.02-3.33-3.23-4.21-3.62-5.29-5.29-1.37-2.25-1.57-4.51-1.76-5.97-.2-1.76,0-2.25,.2-5.97,.29-4.41,.39-6.66,.1-9.11-.39-2.84-1.18-4.9-1.76-6.46-3.04-7.64-8.52-12.15-11.46-14.59-2.06-1.67-3.92-2.84-5.29-3.72l-.1-.1c-1.57-.88-3.82-1.96-6.56-2.64-1.96-.49-3.72-.69-5.19-.78h-2.45l-2.94,.29,1.86-.39c2.84-.49,5.09-.39,6.86-.29,5.39,.39,9.4,2.15,12.44,3.62,2.06,.88,3.82,1.86,5.39,2.84l.29,.2c1.67,1.08,3.43,2.35,5.19,3.82,.88,.69,1.67,1.37,2.35,2.06l.1,.1c3.33,2.45,7.74,6.17,10.68,11.95,.69,1.47,1.67,3.43,2.15,6.07,.39,2.35,.39,4.51,.2,8.82-.1,3.53-.29,4.11,0,5.68,.2,1.37,.49,3.53,2.06,5.68,1.18,1.57,2.15,1.86,5.97,4.9,3.23,2.55,2.45,2.35,4.41,3.72,3.82,2.74,5.78,3.04,7.15,5.49,.29,.49,.39,.78,.49,.98,.1,.29,.69,2.15-.1,4.02-.49,1.18-1.08,.98-2.84,3.04-.98,1.18-1.67,1.96-2.15,3.23-.2,.49-.59,1.76-.29,3.43,.1,.88,.29,1.96,1.08,2.84,1.18,1.47,2.55,1.08,3.72,2.74,.29,.39,.69,.98,.69,1.86,0,1.37-1.27,2.35-1.57,2.55-.98,.78-1.37,.59-2.15,1.37-.29,.29-.88,.98-.78,1.76,.1,.49,.49,.78,.78,.98,1.18,.88,2.15,.49,2.84,1.27,.49,.49,.49,1.08,.49,1.57,0,.29,0,1.08-.49,1.86-.39,.59-.88,.78-1.27,1.08-1.37,1.08-1.37,2.84-1.47,3.82-.1,1.76,.59,2.45,.88,4.02,.88,3.72-.98,6.95-1.37,7.54-1.76,3.04-4.6,4.6-5.68,5.09-.59,.29-1.18,.49-1.76,.69l-7.25,1.67c-5.58,1.86-9.89,2.35-12.93,2.35-2.35,0-6.07-.2-10.68,1.37-1.27,.39-2.35,.88-3.04,1.18l-.2,.2c-4.21,3.43-6.07,7.44-6.66,9.11l-1.37,1.37c-1.08,.69-2.74,1.47-4.8,2.25-1.57,.49-2.84,.78-5.09,1.18-3.72,.59-5.88,.98-9.11,1.18-1.57,.1-3.13,.2-4.51,.2h-4.9"/><circle class="b" cx="8.52" cy="56.35" r="8.52"/><path class="e" d="M9.4,55.86l20.18,40.94L7.54,56.84c-.29-.49-.1-1.08,.39-1.37,.59-.29,1.18-.1,1.47,.39h0Z"/><circle class="b" cx="19.79" cy="17.66" r="6.95"/><circle class="b" cx="29.09" cy="94.16" r="6.95"/><path class="e" d="M29.48,93.18l31.34,13.71-32.13-11.75c-.49-.2-.78-.78-.59-1.27,.2-.69,.78-.98,1.37-.69-.1,0,0,0,0,0h0Z"/><path class="e" d="M30.07,94.06l6.66,36.53-8.72-36.14c-.1-.59,.2-1.08,.78-1.27,.59-.1,1.18,.2,1.27,.88q0-.1,0,0h0Z"/><circle class="b" cx="60.04" cy="106.79" r="4.41"/><circle class="b" cx="36.73" cy="128.44" r="4.41"/><path class="e" d="M28.6,93.27l26.74-17.53-25.56,19.2c-.49,.29-1.08,.29-1.47-.2-.29-.39-.2-1.08,.29-1.47-.1,.1,0,0,0,0Z"/><circle class="b" cx="53.09" cy="77.41" r="4.41"/><path class="e" d="M20.86,17.95L8.62,57.13,18.9,17.37c.1-.59,.69-.88,1.27-.69,.49,.1,.78,.69,.69,1.27h0Z"/><path class="e" d="M20.18,16.39l45.35,16.06L19.49,18.34c-.59-.2-.88-.78-.69-1.27,.2-.59,.78-.88,1.37-.69-.1,0,0,0,0,0Z"/><circle class="b" cx="65.92" cy="32.55" r="4.41"/><path class="e" d="M20.67,16.68l26.54,35.75L19,17.95c-.39-.49-.29-1.08,.1-1.47,.49-.29,1.18-.2,1.57,.2h0Z"/><circle class="b" cx="47.11" cy="52.92" r="4.41"/><path class="e" d="M19.59,16.39L62.88,5.42,20.18,18.34c-.59,.2-1.08-.1-1.27-.69-.2-.59,.1-1.08,.69-1.27-.1,0,0,0,0,0Z"/><circle class="b" cx="63.08" cy="4.93" r="4.41"/></g><g><g class="g"><path class="b" d="M179.25,35.7c0-6.6-.29-8.73-4.66-9.12l-4.66-.39c-.78-.39-.87-1.75-.1-2.13,8.15-1.46,13.48-3.98,16-5.63,.39,0,.78,.19,.97,.49-.19,1.75-.39,6.6-.39,12.12v37.64c0,7.47,.19,9.12,4.17,9.41l4.07,.29c.58,.58,.48,2.13-.19,2.42-3.78-.19-8.15-.29-11.54-.29s-7.86,.1-11.64,.29c-.68-.29-.78-1.84-.19-2.42l3.98-.29c4.07-.29,4.17-1.94,4.17-9.41V35.7Z"/><path class="b" d="M222.9,23.19c7.08-5.53,16.1-8.25,26.19-8.25,5.24,0,12.61,1.07,17.17,2.33,1.16,.29,1.84,.49,2.72,.39,.1,2.23,.58,8.34,1.36,14.26-.48,.68-1.94,.78-2.62,.19-1.46-6.6-5.82-14.16-19.89-14.16-14.84,0-27.45,9.41-27.45,29.49s12.9,31.62,28.81,31.62c12.51,0,18.04-8.15,20.27-13.87,.68-.48,2.13-.29,2.52,.39-.68,5.04-3.2,11.45-4.66,13.29-1.16,.19-2.33,.58-3.4,.97-2.13,.78-9.12,2.23-15.33,2.23-8.73,0-17.07-1.75-24.15-6.5-7.76-5.33-13.77-14.16-13.77-26.67,0-10.77,4.85-19.98,12.22-25.71Z"/><path class="b" d="M296.92,60.44c1.46-.49,1.65-1.36,1.65-2.81l.1-4.46c.1-3.59-1.07-8.44-7.08-8.44-2.72,0-6.01,1.36-6.21,4.37-.1,1.55-.19,2.72-.97,3.3-1.46,1.16-4.07,1.84-5.53,1.84-.87,0-1.36-.49-1.36-1.36,0-5.04,10.96-11.93,18.04-11.93s10.38,4.07,10.09,11.35l-.58,16.88c-.19,4.46,.68,8.44,4.46,8.44,.97,0,1.84-.29,2.42-.58,.49-.29,.97-.68,1.26-.68,.39,0,.68,.58,.68,1.26,0,.49-3.39,4.27-8.15,4.27-2.33,0-4.66-.87-6.3-3.01-.39-.58-.97-1.36-1.55-1.36-.68,0-1.84,.87-3.78,1.94-2.13,1.16-4.27,2.43-6.98,2.43s-5.14-.78-6.79-2.23c-1.84-1.65-3.01-4.07-3.01-6.79,0-3.78,1.84-6.01,8.05-8.25l11.54-4.17Zm-6.01,17.07c1.94,0,4.95-1.46,5.92-2.42,1.16-1.16,1.16-2.52,1.26-4.56l.19-5.72c0-1.07-.39-1.26-.97-1.26s-2.23,.39-3.98,.97c-5.72,1.94-8.54,3.39-8.54,7.18,0,1.65,1.16,5.82,6.11,5.82Z"/><path class="b" d="M354.25,66.35c0,7.66,.1,11.25,2.81,11.25,1.07,0,2.72-.48,4.17-.97,.68,.19,.78,2.62-.1,3.1-4.07,.58-10.09,2.04-12.8,3.1-.58,0-1.07-.29-1.07-.78v-1.65c0-1.46,0-2.62-.19-3.01h-.39c-4.27,2.91-7.57,4.46-12.22,4.46-10.77,0-17.94-8.44-17.94-18.62,0-13.58,10.28-22.31,23.47-22.31,3.3,0,5.43,.49,6.5,.87,.49,0,.58-.58,.58-1.36v-14.65c0-5.72-.1-6.3-3.01-8.05l-.97-.58c-.49-.29-.49-1.65,0-1.94,2.42-.78,6.98-2.23,10.48-4.07,.39,0,.78,.19,.97,.58-.1,2.91-.29,7.76-.29,12.03v42.58Zm-7.18-14.55c0-1.94-.39-2.81-1.07-3.78-1.45-2.04-4.36-4.07-8.15-4.07-8.83,0-13.39,7.66-13.39,16.1s4.95,17.17,14.45,17.17c2.62,0,5.92-1.16,7.47-2.72,.58-.58,.68-2.04,.68-3.59v-19.11Z"/><path class="b" d="M375.1,55.68c-2.52,0-2.62,.19-2.62,2.62,0,9.8,5.72,18.14,16.1,18.14,3.2,0,5.92-.97,8.92-4.75,.97-.29,1.65,.29,1.75,1.16-3.2,6.6-10.18,9.02-15.23,9.02-6.31,0-11.25-2.72-14.07-6.4-2.91-3.78-4.07-8.34-4.07-12.61,0-11.93,7.86-21.92,19.5-21.92,8.34,0,13.77,5.72,13.77,11.54,0,1.36-.19,2.13-.39,2.52-.29,.58-1.65,.68-5.72,.68h-17.95Zm6.01-2.91c7.18,0,9.31-.39,10.09-.97,.29-.19,.58-.58,.58-1.84,0-2.72-1.84-6.11-7.47-6.11s-10.67,5.24-10.77,8.44c0,.19,0,.48,.68,.48h6.89Z"/><path class="b" d="M461.82,55.59c0-6.6-2.91-9.99-9.02-9.99-3.69,0-6.69,1.65-8.05,3.39-1.16,1.46-1.46,2.43-1.46,5.82v14.84c0,6.98,.19,7.95,3.69,8.44l2.04,.29c.68,.48,.48,2.13-.19,2.42-2.91-.19-5.72-.29-9.12-.29s-6.11,.1-8.83,.29c-.68-.29-.87-1.94-.19-2.42l1.75-.29c3.59-.58,3.69-1.46,3.69-8.44v-14.06c0-6.5-2.91-9.99-8.92-9.99-3.98,0-6.69,1.75-8.15,3.49-.97,1.16-1.46,2.42-1.46,5.53v15.04c0,6.98,.19,7.86,3.69,8.44l1.75,.29c.68,.48,.48,2.13-.19,2.42-2.62-.19-5.43-.29-8.83-.29s-6.4,.1-9.41,.29c-.68-.29-.87-1.94-.19-2.42l2.33-.29c3.59-.49,3.69-1.46,3.69-8.44v-16.97c0-3.78,0-4.27-2.62-6.01l-.87-.58c-.39-.39-.39-1.46,.1-1.75,2.23-.78,7.76-3.3,9.7-4.75,.39,0,.87,.19,1.07,.68-.19,2.23-.19,3.69-.19,4.56,0,.58,.39,1.07,1.07,1.07,3.69-2.62,8.25-4.95,12.9-4.95s7.57,1.75,10.28,5.72c.87,.19,1.55-.19,2.42-.78,3.88-2.72,8.63-4.95,13.19-4.95,7.76,0,11.54,5.33,11.54,12.03v16.68c0,6.98,.19,7.95,3.69,8.44l2.33,.29c.68,.48,.49,2.13-.19,2.42-3.2-.19-6.01-.29-9.41-.29s-6.11,.1-8.83,.29c-.68-.29-.87-1.94-.19-2.42l1.75-.29c3.59-.58,3.69-1.46,3.69-8.44v-14.06Z"/><path class="b" d="M479.58,100.5c0-2.62,1.75-3.88,3.88-3.88h1.84c1.55,0,2.52-.68,3.2-1.75,2.81-4.37,4.75-8.44,5.63-10.77,.29-.78,.97-2.81,.97-4.17,0-1.94-.39-3.1-1.65-6.69l-7.57-20.76c-1.65-4.56-2.33-6.89-5.72-7.57l-2.42-.49c-.58-.49-.49-2.13,.29-2.42,3.1,.19,6.01,.29,9.21,.29,2.62,0,5.33-.1,8.44-.29,.78,.29,.87,1.94,.19,2.42l-2.42,.49c-1.36,.29-2.13,.58-2.13,1.26,0,1.16,2.23,7.47,2.81,9.12l3.1,8.92c.58,1.55,2.42,6.69,2.81,6.89,.29-.19,1.84-3.2,3.59-7.18l3.3-7.66c2.13-5.04,3.39-8.63,3.39-9.7,0-.68-.58-1.36-2.33-1.65l-3.01-.49c-.68-.49-.58-2.13,.19-2.42,3.1,.19,6.01,.29,8.54,.29s4.66-.1,7.37-.29c.78,.39,.87,1.84,.19,2.42l-1.65,.29c-3.2,.58-4.95,3.39-8.25,10.28l-5.43,11.15c-3.2,6.5-11.15,23.38-15.91,33.95-1.65,3.69-3.98,4.56-6.21,4.56-2.81,0-4.27-1.75-4.27-4.17Z"/></g><g><path class="c" d="M175.67,137.82s-.06-.06-.12-.17-.1-.23-.15-.36l-4.1-10.3c-.15-.33-.34-.6-.55-.81-.22-.21-.49-.36-.82-.45-.2-.06-.36-.13-.47-.19-.11-.06-.16-.14-.16-.23,0-.08,.05-.13,.15-.16s.23-.05,.4-.05c.29,0,.57,0,.83,.03,.26,.02,.55,.03,.86,.03,.35,0,.69,0,1.01-.02,.32-.01,.57-.02,.76-.02,.16,0,.3,.02,.4,.05,.1,.03,.15,.09,.15,.16,0,.09-.05,.16-.15,.21-.1,.05-.26,.11-.48,.17-.15,.04-.25,.12-.3,.24s-.08,.25-.08,.39c0,.2,.05,.47,.15,.82,.29,.74,.56,1.41,.8,2.01,.24,.61,.48,1.19,.71,1.76,.23,.56,.48,1.14,.74,1.73,.26,.59,.55,1.24,.86,1.97,.06,.14,.12,.2,.16,.19,.04-.01,.09-.07,.12-.17l1.48-3.67c.04-.1,.07-.19,.09-.26,.02-.07,.03-.13,.03-.18,0-.08-.01-.16-.04-.24-.03-.08-.06-.19-.12-.31l-1.08-2.7c-.17-.41-.43-.74-.78-1.02-.36-.27-.7-.45-1.03-.54-.2-.06-.36-.13-.47-.19-.11-.06-.16-.14-.16-.23,0-.08,.05-.13,.15-.16,.1-.03,.23-.05,.4-.05,.2,0,.4,0,.58,.02,.18,.01,.38,.02,.57,.03,.2,0,.41,0,.64,0,.29,0,.56,0,.81-.02,.25-.01,.46-.02,.65-.02,.16,0,.3,.02,.4,.05,.1,.03,.15,.09,.15,.16,0,.1-.06,.18-.19,.25s-.26,.13-.39,.21c-.13,.08-.2,.19-.2,.34,0,.03,0,.05,0,.08,0,.03,.02,.05,.03,.08,.03,.05,.07,.17,.14,.37s.15,.42,.25,.66c.1,.24,.19,.47,.28,.67,.09,.21,.15,.36,.19,.45,.06,.15,.12,.23,.16,.24,.04,0,.11-.07,.18-.24,.1-.23,.21-.49,.31-.78,.11-.29,.2-.57,.29-.83s.14-.44,.16-.54c.01-.04,.02-.08,.02-.13,0-.15-.06-.27-.17-.34-.11-.08-.23-.15-.35-.22-.12-.07-.18-.15-.18-.26,0-.08,.05-.13,.15-.16,.1-.03,.23-.05,.4-.05,.28,0,.47,0,.57,.02s.24,.02,.42,.02c.21,0,.4,0,.55-.03,.15-.02,.34-.03,.57-.03,.16,0,.3,.02,.4,.05s.15,.08,.15,.16c0,.09-.05,.16-.15,.22s-.26,.11-.47,.16c-.41,.09-.68,.2-.83,.32-.15,.13-.3,.32-.47,.59-.06,.11-.15,.3-.28,.57-.12,.27-.25,.56-.38,.87s-.25,.61-.35,.89c-.04,.09-.07,.22-.11,.38-.03,.17-.04,.28,0,.34l1.96,5.04c.03,.06,.06,.08,.1,.06,.04-.03,.08-.08,.11-.17,.32-.84,.68-1.91,1.07-3.21s.81-2.69,1.24-4.14c.04-.11,.07-.23,.09-.35,.02-.12,.03-.23,.03-.33,0-.19-.04-.36-.12-.51-.08-.15-.23-.25-.45-.3-.13-.04-.26-.09-.41-.15-.15-.06-.22-.14-.22-.23,0-.08,.05-.13,.15-.16s.23-.05,.4-.05c.25,0,.48,0,.69,0s.43,0,.67,0c.32,0,.62,0,.91-.03,.29-.02,.56-.03,.8-.03,.16,0,.3,.02,.4,.05s.15,.08,.15,.16c0,.09-.05,.16-.15,.22s-.26,.11-.47,.16c-.3,.06-.56,.19-.77,.39s-.38,.41-.49,.65c-.12,.23-.22,.45-.29,.64l-3.36,9.94c-.01,.05-.05,.14-.11,.26-.06,.12-.13,.18-.19,.18-.05,0-.11-.04-.17-.11-.06-.08-.11-.16-.15-.25-.33-.76-.61-1.44-.86-2.04-.24-.6-.47-1.21-.69-1.81-.22-.61-.48-1.28-.79-2.01-.04-.09-.07-.12-.1-.1-.03,.02-.06,.09-.11,.22-.3,.72-.57,1.36-.79,1.92-.22,.56-.44,1.12-.66,1.7-.21,.58-.46,1.24-.72,1.99-.05,.13-.12,.26-.19,.39s-.15,.2-.23,.2Z"/><path class="c" d="M188.86,137.8c-.7,0-1.3-.17-1.82-.51-.52-.34-.92-.83-1.22-1.45s-.44-1.35-.44-2.18c0-.73,.17-1.4,.5-2s.78-1.09,1.34-1.45c.56-.37,1.17-.55,1.82-.55,.51,0,.96,.1,1.35,.3,.39,.2,.7,.48,.92,.84,.22,.36,.33,.78,.33,1.25,0,.39-.19,.59-.57,.59h-4.01c-.18,0-.3,.05-.37,.14-.07,.09-.1,.28-.1,.56,0,.61,.13,1.16,.4,1.66,.27,.5,.62,.9,1.06,1.2s.93,.45,1.46,.45c.38,0,.72-.07,1.04-.22,.31-.15,.59-.36,.83-.64,.05-.06,.09-.11,.11-.12,.02-.02,.06-.03,.09-.03,.1,0,.15,.06,.15,.19,0,.24-.11,.51-.34,.8-.19,.24-.42,.45-.68,.63-.27,.18-.56,.31-.87,.41-.32,.09-.65,.14-.99,.14Zm-1.75-5.76h1.73c.3,0,.56,0,.78-.02,.22-.01,.42-.04,.63-.08,.06-.01,.1-.05,.12-.12,.02-.07,.03-.17,.03-.29,0-.37-.16-.68-.48-.94-.32-.26-.71-.39-1.15-.39-.29,0-.58,.09-.87,.26-.29,.17-.53,.38-.72,.64-.19,.25-.29,.51-.29,.76,0,.13,.08,.19,.23,.19Z"/><path class="c" d="M199.89,137.82c-.53,0-1.02-.08-1.47-.24s-.85-.38-1.21-.67c-.05-.05-.1-.11-.14-.17-.04-.06-.08-.13-.1-.21-.06-.25-.1-.58-.12-.99-.02-.41-.04-.74-.07-1.01,0-.09,.04-.15,.11-.2,.08-.04,.16-.07,.27-.07,.06,0,.13,.02,.19,.05,.06,.03,.1,.08,.11,.16,.25,.98,.63,1.67,1.13,2.09,.5,.42,1.02,.63,1.57,.63,.44,0,.84-.09,1.18-.29,.34-.19,.61-.46,.81-.81,.2-.35,.29-.76,.29-1.23,0-.52-.08-.94-.26-1.26-.17-.32-.42-.6-.73-.85-.32-.24-.7-.5-1.16-.78-.49-.32-.98-.64-1.46-.96s-.88-.7-1.2-1.12c-.32-.42-.48-.94-.48-1.55,0-.65,.15-1.23,.44-1.75,.29-.52,.73-.93,1.32-1.24s1.33-.47,2.21-.47c.46,0,.85,.05,1.19,.14,.33,.09,.6,.19,.81,.28,.1,.04,.19,.1,.26,.19s.12,.18,.14,.29c.08,.27,.16,.57,.25,.91,.09,.34,.13,.66,.13,.97,0,.14-.09,.21-.29,.21-.11,0-.22-.03-.33-.08s-.17-.11-.2-.19c-.27-.67-.58-1.18-.93-1.54-.35-.35-.8-.53-1.35-.53-.38,0-.73,.07-1.06,.21-.33,.14-.6,.37-.81,.68-.21,.32-.31,.74-.31,1.27,0,.38,.12,.72,.37,1.04s.57,.61,.98,.88,.84,.56,1.31,.85c.44,.27,.88,.56,1.3,.87,.42,.32,.77,.69,1.04,1.13,.27,.44,.41,.97,.41,1.61,0,.75-.17,1.4-.51,1.97s-.82,1-1.44,1.3c-.62,.3-1.35,.46-2.18,.46Z"/><path class="c" d="M206.07,142.93c-.24,0-.46-.06-.67-.18-.2-.12-.3-.32-.3-.6,0-.23,.05-.43,.16-.6,.11-.17,.26-.26,.47-.26,.14,0,.28,.02,.41,.06s.25,.06,.35,.06c.08,0,.14-.02,.2-.05,.06-.03,.11-.09,.16-.16,.14-.23,.3-.51,.48-.85s.37-.73,.57-1.16c.2-.43,.38-.89,.56-1.37,.04-.11,.06-.26,.06-.44,0-.1,0-.2-.02-.29-.01-.09-.03-.18-.06-.26l-2.2-5.57c-.09-.23-.21-.43-.35-.6s-.31-.28-.5-.33c-.1-.04-.2-.08-.29-.13-.09-.05-.14-.12-.14-.21,0-.08,.05-.12,.14-.14,.09-.02,.17-.03,.24-.03,.25,0,.44,0,.56,.02s.23,.03,.34,.05c.11,.02,.27,.03,.48,.03,.23,0,.4,0,.51-.03,.11-.02,.23-.03,.36-.05,.13-.01,.32-.02,.57-.02,.08,0,.16,.02,.25,.05s.13,.09,.13,.16c0,.09-.07,.17-.2,.26-.13,.08-.25,.14-.35,.16-.13,.04-.22,.1-.29,.2-.06,.09-.09,.23-.09,.41,0,.08,.02,.17,.06,.28,.04,.11,.07,.19,.1,.26l1.54,3.8c.03,.08,.06,.11,.11,.11,.04,0,.07-.04,.1-.11l1.31-3.48c.04-.09,.07-.21,.1-.35s.05-.26,.05-.35c0-.24-.04-.41-.1-.5-.07-.09-.16-.17-.28-.22-.1-.05-.22-.12-.35-.2-.13-.08-.2-.17-.2-.26,0-.08,.05-.13,.14-.16,.1-.03,.17-.05,.24-.05,.18,0,.36,.02,.54,.05s.45,.05,.81,.05c.24,0,.42,0,.52-.03,.11-.02,.2-.03,.28-.05s.18-.02,.32-.02c.06,0,.14,0,.24,.03,.09,.02,.14,.07,.14,.14,0,.09-.05,.16-.14,.21-.09,.05-.19,.1-.29,.13-.19,.05-.39,.2-.61,.45-.22,.25-.39,.52-.51,.83l-2.58,6.16s-.08,.2-.2,.49c-.12,.29-.27,.65-.45,1.08s-.37,.89-.58,1.39-.41,.97-.6,1.42c-.11,.25-.28,.45-.49,.58-.22,.13-.46,.2-.74,.2Z"/><path class="c" d="M214.01,137.57c-.11,0-.21-.02-.28-.05s-.1-.09-.1-.16c0-.1,.04-.17,.11-.2,.08-.03,.18-.07,.32-.1,.19-.05,.37-.12,.55-.21,.18-.09,.27-.26,.27-.51v-4.08c0-.34-.04-.63-.1-.87-.07-.24-.27-.41-.6-.49-.05-.03-.09-.05-.13-.09-.04-.03-.06-.08-.06-.16,0-.14,.06-.21,.17-.23,.44-.11,.8-.25,1.08-.42,.28-.16,.55-.35,.82-.55,.04-.03,.07-.05,.1-.07,.03-.02,.07-.03,.1-.03,.03,0,.05,.01,.07,.04,.02,.03,.03,.06,.03,.09,0,.09-.02,.27-.05,.54-.03,.27-.05,.5-.05,.67,0,.05,0,.1,0,.14,0,.04,.02,.07,.03,.09,.44-.42,.92-.73,1.42-.95,.5-.21,1.05-.32,1.64-.32s1.13,.25,1.54,.76c.41,.51,.61,1.13,.61,1.88v4.05c0,.25,.09,.42,.27,.5,.18,.08,.36,.16,.55,.22,.1,.04,.2,.08,.29,.12,.1,.04,.14,.12,.14,.22,0,.08-.04,.12-.13,.14-.09,.02-.17,.03-.25,.03-.25,0-.45,0-.59-.03-.14-.02-.27-.03-.4-.05-.13-.01-.3-.02-.53-.02-.22,0-.39,0-.53,.02-.14,.01-.28,.03-.43,.05-.15,.02-.34,.03-.6,.03-.06,0-.14,0-.24-.03-.09-.02-.14-.07-.14-.14,0-.1,.05-.17,.14-.22,.09-.04,.19-.09,.29-.12,.19-.06,.37-.14,.55-.22,.18-.08,.27-.25,.27-.5v-3.99c0-.56-.16-.99-.46-1.3-.31-.31-.73-.47-1.25-.48-.46,0-.85,.07-1.2,.22-.34,.15-.65,.33-.91,.54-.05,.05-.09,.12-.11,.2-.03,.08-.04,.16-.04,.24v4.58c0,.25,.09,.42,.27,.51,.18,.09,.36,.16,.55,.21,.29,.08,.44,.18,.44,.3,0,.08-.03,.13-.09,.16s-.16,.05-.29,.05c-.25,0-.45,0-.6-.03-.15-.02-.28-.03-.41-.05-.13-.01-.3-.02-.53-.02-.22,0-.39,0-.52,.02s-.27,.03-.42,.05c-.15,.02-.35,.03-.6,.03Z"/><path class="c" d="M226.8,137.78c-.62,0-1.11-.19-1.45-.57-.35-.38-.52-.94-.52-1.69v-4.41c0-.1-.04-.17-.11-.22-.08-.04-.24-.07-.49-.07h-.11c-.06,0-.12-.04-.16-.12-.04-.08-.07-.17-.07-.26,0-.02,.02-.06,.06-.11s.06-.08,.08-.1c.25-.18,.48-.35,.69-.53,.21-.18,.4-.35,.57-.52,.17-.17,.31-.33,.43-.47,.06-.06,.12-.12,.16-.16,.04-.04,.1-.07,.16-.07s.12,.01,.18,.04c.06,.03,.08,.08,.07,.17l-.09,.86c-.01,.14,.02,.23,.09,.29,.08,.05,.2,.08,.36,.08h2.17c.05,0,.09,.04,.13,.12,.04,.08,.06,.18,.06,.29s-.02,.22-.06,.33-.08,.16-.13,.16h-1.88c-.32,0-.52,.03-.62,.08-.1,.05-.14,.2-.14,.46v3.74c0,.51,.11,.91,.32,1.2,.22,.29,.53,.44,.93,.44,.37,0,.65-.03,.85-.08,.2-.06,.39-.14,.55-.26,.02-.03,.05-.04,.08-.04,.05,0,.09,.03,.1,.09,.02,.06,.03,.12,.03,.18s-.1,.19-.31,.38c-.21,.19-.48,.37-.82,.53-.34,.17-.7,.25-1.09,.25Z"/><path class="c" d="M229.91,137.57c-.25,0-.38-.07-.38-.21,0-.11,.15-.21,.44-.3,.19-.06,.37-.15,.54-.25s.26-.28,.28-.53v-9.52c0-.34-.06-.64-.17-.9-.11-.26-.34-.42-.67-.47-.11-.03-.17-.11-.17-.27,0-.11,.05-.19,.15-.23,.18-.06,.39-.13,.64-.21s.5-.16,.77-.26c.27-.1,.5-.19,.7-.28,.05-.02,.09-.04,.11-.04,.04,0,.07,.01,.09,.04,.03,.03,.04,.06,.04,.1,0,.08-.02,.18-.05,.32-.03,.14-.06,.38-.08,.72-.03,.34-.04,.85-.04,1.54v3.31c0,.2,0,.35,.03,.44,.02,.09,.05,.18,.1,.27,.2-.15,.45-.32,.75-.5,.3-.18,.63-.34,1-.48,.37-.14,.75-.21,1.14-.21,.62,0,1.14,.24,1.55,.73,.41,.49,.62,1.11,.62,1.85v3.99c0,.25,.08,.44,.25,.56s.34,.21,.53,.28c.14,.04,.25,.08,.32,.12,.08,.04,.11,.1,.11,.18,0,.14-.13,.21-.38,.21s-.45,0-.58-.03c-.13-.02-.26-.03-.38-.05-.12-.01-.29-.02-.52-.02-.22,0-.39,0-.51,.02-.13,.01-.26,.03-.39,.05-.13,.02-.33,.03-.58,.03s-.38-.07-.38-.21c0-.09,.04-.15,.11-.18,.08-.03,.18-.07,.32-.12,.19-.06,.36-.16,.51-.28,.15-.12,.23-.31,.23-.56v-3.88c0-.32-.09-.6-.28-.86s-.41-.47-.67-.62c-.27-.15-.54-.23-.82-.23-.24,0-.52,.04-.84,.1-.32,.07-.56,.17-.74,.31-.2,.17-.34,.34-.41,.51-.07,.18-.1,.46-.1,.86v3.86c.01,.25,.09,.43,.24,.53s.31,.18,.5,.25c.14,.04,.24,.08,.31,.12,.07,.04,.1,.1,.1,.18,0,.14-.13,.21-.38,.21s-.44,0-.57-.03c-.13-.02-.25-.03-.36-.05s-.29-.02-.51-.02c-.22,0-.39,0-.52,.02-.13,.01-.27,.03-.42,.05-.15,.02-.35,.03-.6,.03Z"/><path class="c" d="M243.01,137.8c-.7,0-1.3-.17-1.82-.51-.52-.34-.92-.83-1.22-1.45s-.44-1.35-.44-2.18c0-.73,.17-1.4,.5-2s.78-1.09,1.34-1.45c.56-.37,1.17-.55,1.82-.55,.51,0,.96,.1,1.35,.3,.39,.2,.7,.48,.92,.84,.22,.36,.33,.78,.33,1.25,0,.39-.19,.59-.57,.59h-4.01c-.18,0-.3,.05-.37,.14-.07,.09-.1,.28-.1,.56,0,.61,.13,1.16,.4,1.66,.27,.5,.62,.9,1.06,1.2s.93,.45,1.46,.45c.38,0,.72-.07,1.04-.22,.31-.15,.59-.36,.83-.64,.05-.06,.09-.11,.11-.12,.02-.02,.06-.03,.09-.03,.1,0,.15,.06,.15,.19,0,.24-.11,.51-.34,.8-.19,.24-.42,.45-.68,.63-.27,.18-.56,.31-.87,.41-.32,.09-.65,.14-.99,.14Zm-1.75-5.76h1.73c.3,0,.56,0,.78-.02,.22-.01,.42-.04,.63-.08,.06-.01,.1-.05,.12-.12,.02-.07,.03-.17,.03-.29,0-.37-.16-.68-.48-.94-.32-.26-.71-.39-1.15-.39-.29,0-.58,.09-.87,.26-.29,.17-.53,.38-.72,.64-.19,.25-.29,.51-.29,.76,0,.13,.08,.19,.23,.19Z"/><path class="c" d="M249.1,137.78c-.39,0-.76-.06-1.1-.18-.34-.12-.63-.29-.87-.5-.06-.14-.11-.37-.14-.7-.03-.33-.05-.6-.07-.82,0-.11,.08-.17,.25-.17,.05,0,.1,0,.14,.03,.04,.02,.07,.05,.09,.1,.16,.62,.43,1.06,.79,1.33,.36,.27,.72,.4,1.09,.4s.68-.12,.94-.37,.39-.55,.39-.92c0-.34-.11-.64-.34-.88-.23-.25-.63-.55-1.2-.9-.43-.27-.78-.52-1.04-.76-.27-.24-.46-.49-.58-.74-.12-.25-.18-.54-.18-.85,0-.41,.1-.77,.29-1.1,.19-.33,.48-.59,.86-.79s.85-.29,1.42-.29c.38,0,.7,.04,.95,.11,.25,.08,.44,.16,.57,.25,.1,.14,.19,.36,.26,.66,.07,.3,.1,.58,.1,.85,0,.09-.06,.13-.19,.13-.08,0-.15-.02-.22-.05-.07-.03-.12-.07-.14-.12-.17-.42-.37-.74-.62-.96-.25-.22-.55-.33-.92-.33-.32,0-.6,.09-.85,.29-.25,.19-.37,.47-.37,.84,0,.29,.09,.55,.28,.78,.18,.23,.53,.49,1.04,.78,.73,.42,1.28,.81,1.64,1.17,.36,.36,.54,.84,.54,1.43,0,.68-.26,1.24-.78,1.67s-1.19,.65-2.01,.65Z"/><path class="c" d="M253.34,137.57c-.11,0-.21-.02-.28-.05s-.1-.09-.1-.16c0-.1,.05-.17,.14-.21s.19-.07,.29-.09c.27-.06,.47-.14,.61-.24s.21-.26,.21-.48v-4.12c0-.34-.06-.65-.18-.91s-.34-.42-.67-.48c-.06-.01-.11-.04-.14-.08-.03-.04-.05-.1-.05-.17,0-.14,.06-.22,.17-.23,.51-.11,.92-.27,1.25-.47,.33-.2,.58-.36,.74-.48,.11-.09,.2-.13,.27-.13,.08,0,.11,.03,.11,.09,0,.1-.02,.3-.05,.6-.03,.3-.06,.63-.08,.99s-.04,.69-.04,.98v4.41c0,.21,.07,.37,.22,.47,.15,.1,.34,.18,.6,.25,.1,.03,.2,.06,.29,.09s.14,.11,.14,.21c0,.14-.13,.21-.38,.21s-.43,0-.58-.03c-.15-.02-.29-.03-.42-.05-.13-.01-.31-.02-.54-.02-.22,0-.39,0-.53,.02s-.28,.03-.42,.05c-.14,.02-.34,.03-.59,.03Zm1.52-9.86c-.27,0-.49-.09-.67-.28s-.28-.41-.28-.67,.09-.51,.28-.69,.41-.28,.67-.28,.51,.09,.69,.28,.28,.42,.28,.69-.09,.49-.28,.67-.42,.28-.69,.28Z"/><path class="c" d="M257.9,137.61c-.05,0-.11-.04-.17-.12-.06-.08-.1-.15-.1-.2,0-.04,.04-.12,.12-.25,.08-.13,.18-.27,.29-.44,.11-.16,.21-.3,.29-.42,.32-.46,.62-.9,.91-1.32s.58-.85,.86-1.27c.29-.42,.58-.87,.88-1.35s.63-.98,.97-1.53c.03-.04,.04-.08,.04-.12s-.07-.07-.21-.07l-1.88-.06c-.18-.01-.34,.03-.49,.11-.15,.09-.27,.17-.34,.25-.08,.08-.15,.16-.22,.25-.07,.09-.14,.18-.21,.29-.07,.1-.14,.2-.21,.29s-.14,.19-.2,.28c-.08,.08-.17,.09-.29,.04-.12-.05-.16-.13-.12-.23,.04-.11,.09-.28,.14-.5s.11-.45,.15-.69c.04-.24,.07-.44,.07-.59,0-.1,.04-.18,.11-.25,.08-.06,.13-.1,.17-.1,.05,0,.15,.06,.29,.17,.06,.05,.17,.08,.33,.1,.16,.01,.32,.02,.48,.02,.14,0,.27,0,.4,0,.13,0,.23,0,.32,0,.66,0,1.27,0,1.82-.02s1.13-.03,1.71-.04c.04,0,.07,.01,.09,.04s.04,.06,.06,.1c.01,.04,0,.07-.02,.09-.13,.17-.25,.32-.36,.46-.11,.14-.24,.3-.36,.49l-3.71,5.6c-.05,.09-.06,.16-.02,.21,.04,.05,.1,.08,.19,.08h2.24c.14,0,.28-.04,.43-.11,.15-.08,.29-.18,.43-.32,.15-.15,.32-.35,.49-.6s.36-.51,.55-.79c.06-.09,.15-.11,.26-.08s.16,.11,.16,.21c0,.04-.03,.16-.08,.35-.05,.2-.11,.42-.18,.67-.07,.25-.13,.48-.19,.69-.06,.22-.1,.36-.12,.44-.04,.18-.14,.27-.3,.27-.28,0-.75-.02-1.42-.05-.67-.03-1.52-.05-2.56-.05-.27,0-.54,.02-.84,.05-.29,.03-.52,.05-.68,.05Z"/><path class="c" d="M268.37,137.8c-.7,0-1.3-.17-1.82-.51-.52-.34-.92-.83-1.22-1.45s-.44-1.35-.44-2.18c0-.73,.17-1.4,.5-2s.78-1.09,1.34-1.45c.56-.37,1.17-.55,1.82-.55,.51,0,.96,.1,1.35,.3,.39,.2,.7,.48,.92,.84,.22,.36,.33,.78,.33,1.25,0,.39-.19,.59-.57,.59h-4.01c-.18,0-.3,.05-.37,.14-.07,.09-.1,.28-.1,.56,0,.61,.13,1.16,.4,1.66,.27,.5,.62,.9,1.06,1.2s.93,.45,1.46,.45c.38,0,.72-.07,1.04-.22,.31-.15,.59-.36,.83-.64,.05-.06,.09-.11,.11-.12,.02-.02,.06-.03,.09-.03,.1,0,.15,.06,.15,.19,0,.24-.11,.51-.34,.8-.19,.24-.42,.45-.68,.63-.27,.18-.56,.31-.87,.41-.32,.09-.65,.14-.99,.14Zm-1.75-5.76h1.73c.3,0,.56,0,.78-.02,.22-.01,.42-.04,.63-.08,.06-.01,.1-.05,.12-.12,.02-.07,.03-.17,.03-.29,0-.37-.16-.68-.48-.94-.32-.26-.71-.39-1.15-.39-.29,0-.58,.09-.87,.26-.29,.17-.53,.38-.72,.64-.19,.25-.29,.51-.29,.76,0,.13,.08,.19,.23,.19Z"/><path class="c" d="M276.45,137.61c-.17,0-.3-.02-.4-.05-.1-.03-.15-.09-.15-.16,0-.15,.21-.27,.63-.34,.48-.09,.85-.23,1.1-.44,.25-.2,.38-.53,.38-.99v-8.55c0-.46-.09-.79-.29-1.01-.19-.21-.52-.34-.99-.38-.22-.02-.37-.07-.48-.14-.1-.07-.15-.15-.15-.24,0-.08,.05-.13,.15-.16s.23-.05,.4-.05h.8c.19,0,.37,0,.54,0,.17,0,.38,0,.64,0s.45,0,.63-.03c.18-.02,.38-.04,.6-.05s.52-.02,.88-.02c1.48,0,2.59,.21,3.32,.64,.73,.42,1.09,1.16,1.09,2.19,0,.43-.07,.81-.22,1.13s-.29,.55-.43,.69c-.2,.2-.39,.36-.55,.47-.17,.11-.41,.22-.72,.35-.05,.01-.08,.04-.08,.08s.03,.08,.08,.1c.29,.09,.59,.2,.9,.34,.31,.14,.6,.32,.87,.54s.49,.51,.67,.87,.26,.82,.26,1.38c0,.7-.11,1.25-.33,1.65s-.48,.72-.79,.93c-.3,.21-.59,.39-.86,.53-.39,.2-.85,.36-1.37,.48-.52,.11-1.14,.17-1.86,.17-.16,0-.41-.01-.74-.04-.33-.03-.68-.04-1.06-.04-.33,0-.61,0-.84,.02-.23,.01-.47,.03-.71,.05-.25,.02-.55,.03-.92,.03Zm3.91-7.14c.34,0,.71-.04,1.11-.11s.79-.22,1.19-.44c.14-.08,.32-.26,.53-.55,.21-.29,.32-.71,.32-1.25,0-.37-.07-.74-.21-1.13-.14-.39-.41-.71-.8-.98-.39-.27-.98-.4-1.77-.4-.52,0-.86,.07-1.02,.21-.16,.14-.24,.35-.24,.65v3.31c0,.33,.11,.53,.32,.6,.21,.07,.4,.1,.55,.1Zm.63,6.35c.56,0,1.08-.13,1.56-.38,.48-.25,.87-.6,1.16-1.04,.29-.44,.44-.93,.44-1.47,0-.49-.08-.9-.25-1.23-.17-.32-.36-.59-.57-.79-.22-.2-.41-.35-.59-.44-.17-.1-.42-.21-.78-.31s-.82-.16-1.39-.16c-.41,0-.69,.08-.85,.25-.16,.16-.24,.31-.24,.44v3.78c0,.53,.13,.89,.39,1.07,.26,.18,.63,.28,1.11,.28Z"/><path class="c" d="M291.13,137.78c-.71,0-1.35-.16-1.92-.49-.57-.33-1.02-.78-1.36-1.36-.34-.58-.5-1.23-.5-1.97,0-.53,.1-1.05,.31-1.56,.21-.51,.5-.97,.88-1.39s.82-.75,1.33-1c.51-.25,1.05-.37,1.63-.37,.73,0,1.4,.18,1.99,.53s1.06,.82,1.41,1.4c.35,.58,.52,1.21,.52,1.89,0,.73-.16,1.43-.48,2.09-.32,.66-.8,1.19-1.43,1.61-.63,.41-1.42,.62-2.38,.62Zm.4-.57c.43,0,.82-.08,1.16-.25,.34-.17,.61-.43,.8-.8,.15-.29,.25-.65,.3-1.06,.05-.42,.08-.81,.08-1.18,0-.61-.11-1.19-.33-1.76s-.53-1.03-.93-1.39c-.4-.36-.87-.54-1.42-.54-.34,0-.65,.05-.92,.16s-.52,.31-.75,.6c-.25,.32-.42,.7-.49,1.16s-.11,.91-.11,1.37c0,.62,.11,1.21,.34,1.78,.23,.56,.54,1.02,.93,1.38s.84,.53,1.35,.53Z"/><path class="c" d="M300.54,137.78c-.71,0-1.35-.16-1.92-.49-.57-.33-1.02-.78-1.36-1.36-.34-.58-.5-1.23-.5-1.97,0-.53,.1-1.05,.31-1.56,.21-.51,.5-.97,.88-1.39s.82-.75,1.33-1c.51-.25,1.05-.37,1.63-.37,.73,0,1.4,.18,1.99,.53s1.06,.82,1.41,1.4c.35,.58,.52,1.21,.52,1.89,0,.73-.16,1.43-.48,2.09-.32,.66-.8,1.19-1.43,1.61-.63,.41-1.42,.62-2.38,.62Zm.4-.57c.43,0,.82-.08,1.16-.25,.34-.17,.61-.43,.8-.8,.15-.29,.25-.65,.3-1.06,.05-.42,.08-.81,.08-1.18,0-.61-.11-1.19-.33-1.76s-.53-1.03-.93-1.39c-.4-.36-.87-.54-1.42-.54-.34,0-.65,.05-.92,.16s-.52,.31-.75,.6c-.25,.32-.42,.7-.49,1.16s-.11,.91-.11,1.37c0,.62,.11,1.21,.34,1.78,.23,.56,.54,1.02,.93,1.38s.84,.53,1.35,.53Z"/><path class="c" d="M306.01,137.57c-.29,0-.44-.07-.44-.21,0-.1,.05-.17,.14-.2,.09-.03,.19-.07,.29-.1,.19-.06,.37-.15,.55-.25,.18-.1,.27-.28,.27-.53v-9.52c0-.44-.06-.77-.19-.97-.13-.2-.35-.34-.67-.42-.11-.03-.17-.11-.17-.25,0-.13,.05-.2,.15-.23,.33-.08,.61-.15,.85-.24,.24-.08,.46-.16,.66-.25,.2-.08,.39-.16,.58-.24,.08-.04,.13-.06,.17-.06s.07,.01,.09,.04c.02,.03,.03,.07,.03,.13,0,.13-.03,.38-.09,.76-.06,.38-.08,.98-.08,1.79v6.23c0,.11,.03,.17,.09,.17,.08,0,.17-.03,.29-.09,.12-.06,.25-.16,.39-.29,.52-.44,.95-.85,1.3-1.21,.35-.36,.59-.61,.71-.75,.06-.08,.11-.14,.13-.18,.03-.04,.04-.08,.04-.1,0-.06-.05-.12-.16-.17-.11-.05-.22-.09-.33-.11-.15-.04-.23-.1-.23-.19,0-.06,.04-.12,.11-.16,.08-.04,.18-.07,.3-.07h.93c.2,0,.42-.02,.64-.06,.22-.04,.43-.08,.63-.11,.2-.04,.35-.06,.46-.06,.18,0,.27,.06,.27,.19,0,.08-.04,.14-.13,.2-.09,.06-.2,.1-.34,.14-.24,.06-.46,.15-.67,.27-.21,.11-.4,.22-.58,.32-.08,.05-.25,.19-.52,.41-.27,.22-.58,.48-.93,.77-.35,.29-.67,.57-.98,.84-.08,.08-.11,.14-.11,.19,0,.01,0,.03,.02,.06,.01,.03,.02,.05,.04,.08,.33,.41,.68,.82,1.06,1.24s.73,.79,1.05,1.1c.32,.32,.55,.54,.67,.67,.21,.2,.46,.38,.73,.54,.27,.16,.5,.27,.69,.33,.14,.05,.27,.09,.39,.13,.12,.04,.18,.11,.18,.21,0,.14-.13,.21-.38,.21-.49,0-1.05,0-1.66-.03-.61-.02-1.24-.03-1.89-.03-.23,0-.34-.06-.34-.17,0-.08,.03-.14,.09-.19,.06-.05,.14-.09,.23-.11,.14-.05,.26-.11,.36-.17,.1-.06,.15-.15,.15-.27,0-.04-.01-.08-.04-.12-.03-.04-.06-.09-.09-.14l-2.3-2.6c-.08-.09-.14-.13-.19-.13-.06,0-.09,.04-.09,.13-.01,.18-.02,.37-.02,.58v1.3c0,.23,0,.45,.02,.67,0,.25,.06,.43,.19,.53s.29,.18,.48,.25c.1,.04,.2,.07,.29,.1,.09,.03,.14,.1,.14,.2,0,.09-.06,.15-.18,.17-.12,.03-.21,.04-.26,.04-.24,0-.42,0-.53-.03-.11-.02-.22-.03-.31-.05s-.26-.02-.48-.02c-.22,0-.39,0-.51,.02-.13,.01-.26,.03-.39,.05-.13,.02-.33,.03-.58,.03Z"/><path class="c" d="M316.86,137.78c-.39,0-.76-.06-1.1-.18-.34-.12-.63-.29-.87-.5-.06-.14-.11-.37-.14-.7-.03-.33-.05-.6-.07-.82,0-.11,.08-.17,.25-.17,.05,0,.1,0,.14,.03,.04,.02,.07,.05,.09,.1,.16,.62,.43,1.06,.79,1.33,.36,.27,.72,.4,1.09,.4s.68-.12,.94-.37,.39-.55,.39-.92c0-.34-.11-.64-.34-.88-.23-.25-.63-.55-1.2-.9-.43-.27-.78-.52-1.04-.76-.27-.24-.46-.49-.58-.74-.12-.25-.18-.54-.18-.85,0-.41,.1-.77,.29-1.1,.19-.33,.48-.59,.86-.79s.85-.29,1.42-.29c.38,0,.7,.04,.95,.11,.25,.08,.44,.16,.57,.25,.1,.14,.19,.36,.26,.66,.07,.3,.1,.58,.1,.85,0,.09-.06,.13-.19,.13-.08,0-.15-.02-.22-.05-.07-.03-.12-.07-.14-.12-.17-.42-.37-.74-.62-.96-.25-.22-.55-.33-.92-.33-.32,0-.6,.09-.85,.29-.25,.19-.37,.47-.37,.84,0,.29,.09,.55,.28,.78,.18,.23,.53,.49,1.04,.78,.73,.42,1.28,.81,1.64,1.17,.36,.36,.54,.84,.54,1.43,0,.68-.26,1.24-.78,1.67s-1.19,.65-2.01,.65Z"/><path class="c" d="M328.09,137.8c-.65,0-1.22-.12-1.72-.35-.5-.23-.89-.55-1.17-.96-.28-.41-.42-.87-.42-1.39,0-1.01,.3-1.84,.9-2.49,.6-.65,1.36-1.18,2.27-1.6l.38-.17-.29-.3c-.11-.14-.27-.31-.47-.51-.2-.2-.37-.45-.53-.73s-.24-.61-.24-.98c0-.44,.13-.83,.39-1.16,.26-.33,.59-.58,1-.76,.41-.18,.82-.27,1.25-.27,.54,0,.99,.12,1.35,.37s.62,.55,.8,.91,.27,.71,.27,1.04c.01,.48-.16,.9-.51,1.25s-.85,.65-1.48,.87l-.27,.09,.25,.27c.48,.52,.92,.97,1.31,1.35,.39,.38,.78,.85,1.16,1.41l.23,.34,.34-.36c.3-.33,.62-.7,.94-1.1,.32-.41,.6-.78,.82-1.11,.22-.33,.33-.55,.33-.64,0-.08-.05-.18-.14-.3-.09-.13-.22-.2-.39-.23-.03-.01-.07-.04-.13-.1-.06-.05-.09-.09-.09-.11,0-.1,.06-.16,.18-.18,.12-.02,.2-.03,.24-.03s.15,0,.33,.02,.38,.03,.58,.05c.2,.02,.35,.03,.44,.03,.19,0,.4-.02,.63-.07,.23-.04,.45-.09,.66-.14s.39-.08,.54-.08c.03,0,.07,.02,.13,.06,.06,.04,.1,.08,.1,.11,0,.08-.06,.15-.17,.23-.11,.08-.22,.12-.3,.13-.29,.01-.56,.08-.8,.2-.24,.12-.44,.25-.59,.39-.05,.04-.2,.18-.44,.44-.24,.25-.53,.55-.86,.9s-.66,.69-.98,1.04-.69,.74-1.12,1.2l.32,.46c.41,.58,.8,1.05,1.2,1.4s.83,.52,1.31,.52c.27,0,.52-.03,.77-.08s.48-.14,.71-.27c.05-.03,.1-.05,.16-.07,.06-.02,.11-.03,.16-.03,.09,0,.15,.02,.18,.05,.03,.03,.05,.09,.05,.18,0,.1-.13,.25-.4,.46-.27,.2-.59,.39-.96,.55-.37,.16-.74,.25-1.09,.25-.47,0-.86-.08-1.18-.24s-.61-.4-.86-.72c-.26-.32-.55-.74-.88-1.24l-.25-.4-.11,.11c-.39,.43-.77,.84-1.13,1.22-.36,.38-.75,.69-1.17,.92s-.92,.35-1.52,.35Zm.49-1.24c.63,0,1.18-.13,1.64-.4,.46-.27,.93-.65,1.4-1.14l.17-.17-.23-.36c-.32-.48-.71-.97-1.19-1.46-.47-.49-.99-1.03-1.53-1.61l-.23-.25-.4,.15c-.58,.23-1.02,.52-1.3,.87-.29,.35-.47,.72-.55,1.12-.08,.4-.12,.79-.12,1.17,0,.58,.22,1.08,.65,1.48s.99,.61,1.69,.61Zm.78-6.19l.25-.11c.35-.17,.62-.43,.79-.79,.17-.36,.26-.73,.26-1.11,0-.44-.1-.84-.31-1.2-.21-.35-.54-.53-.98-.53-.38,0-.72,.12-1.01,.35s-.44,.52-.44,.86c0,.25,.02,.48,.08,.68,.05,.2,.16,.42,.32,.65,.17,.23,.41,.52,.74,.87l.3,.32Z"/><path class="c" d="M354.33,137.91c-.35,0-.69-.03-1.01-.09s-.61-.16-.87-.31c-.27-.15-.51-.36-.74-.63-.3-.38-.6-.74-.87-1.09-.28-.35-.57-.75-.88-1.21s-.69-1.04-1.13-1.75c-.19-.32-.46-.56-.82-.74-.28-.14-.55-.24-.83-.29-.27-.06-.5-.09-.67-.1-.1-.01-.17,.02-.22,.1-.04,.08-.07,.17-.07,.29v3.34c0,.41,.09,.76,.29,1.05,.19,.3,.52,.49,.99,.58,.22,.04,.37,.08,.48,.13,.1,.05,.15,.12,.15,.21,0,.08-.05,.13-.15,.16-.1,.03-.23,.05-.4,.05-.34,0-.6-.01-.79-.04s-.35-.05-.49-.07c-.15-.02-.34-.03-.58-.03-.32,0-.6,0-.84,.03-.25,.02-.49,.04-.74,.07s-.54,.04-.88,.04c-.17,0-.3-.02-.4-.05-.1-.03-.15-.09-.15-.16,0-.15,.21-.27,.63-.34,.48-.09,.83-.23,1.05-.44,.22-.2,.33-.54,.33-1.01v-8.09c0-.48-.02-.85-.07-1.09s-.15-.42-.3-.52c-.16-.1-.42-.17-.79-.21-.21-.02-.37-.07-.47-.14-.1-.07-.15-.15-.15-.24,0-.08,.05-.13,.15-.16s.23-.05,.4-.05h.77c.17,0,.33,0,.48,0,.15,0,.35,0,.61,0s.46,0,.65-.03c.19-.02,.4-.04,.64-.05,.23-.01,.53-.02,.9-.02,1.39,0,2.45,.26,3.18,.78,.73,.52,1.09,1.3,1.09,2.34,0,.57-.11,1.06-.34,1.47-.23,.41-.51,.76-.85,1.04-.34,.28-.69,.51-1.04,.68-.05,.01-.07,.04-.07,.08,0,.04,.03,.1,.07,.16,.39,.6,.77,1.16,1.13,1.69,.36,.53,.76,1.05,1.19,1.56s.94,1.03,1.54,1.58c.33,.29,.67,.47,1.01,.53,.34,.06,.73,.1,1.18,.1,.19,0,.28,.07,.28,.21,0,.19-.09,.33-.28,.43-.19,.1-.41,.16-.65,.19-.24,.03-.44,.05-.61,.05Zm-7.11-6.65c.58,0,1.09-.13,1.51-.4,.42-.27,.75-.61,.99-1.04,.23-.43,.35-.89,.35-1.37,0-.52-.07-.99-.2-1.42s-.4-.78-.8-1.04c-.4-.26-1-.39-1.8-.39-.41,0-.67,.13-.8,.39s-.2,.72-.23,1.38c-.01,.32-.02,.75-.03,1.28,0,.54,0,1.19,0,1.95,0,.32,.09,.51,.27,.57s.42,.09,.74,.09Z"/><path class="c" d="M359.82,137.8c-.7,0-1.3-.17-1.82-.51-.52-.34-.92-.83-1.22-1.45s-.44-1.35-.44-2.18c0-.73,.17-1.4,.5-2s.78-1.09,1.34-1.45c.56-.37,1.17-.55,1.82-.55,.51,0,.96,.1,1.35,.3,.39,.2,.7,.48,.92,.84,.22,.36,.33,.78,.33,1.25,0,.39-.19,.59-.57,.59h-4.01c-.18,0-.3,.05-.37,.14-.07,.09-.1,.28-.1,.56,0,.61,.13,1.16,.4,1.66,.27,.5,.62,.9,1.06,1.2s.93,.45,1.46,.45c.38,0,.72-.07,1.04-.22,.31-.15,.59-.36,.83-.64,.05-.06,.09-.11,.11-.12,.02-.02,.06-.03,.09-.03,.1,0,.15,.06,.15,.19,0,.24-.11,.51-.34,.8-.19,.24-.42,.45-.68,.63-.27,.18-.56,.31-.87,.41-.32,.09-.65,.14-.99,.14Zm-1.75-5.76h1.73c.3,0,.56,0,.78-.02,.22-.01,.42-.04,.63-.08,.06-.01,.1-.05,.12-.12,.02-.07,.03-.17,.03-.29,0-.37-.16-.68-.48-.94-.32-.26-.71-.39-1.15-.39-.29,0-.58,.09-.87,.26-.29,.17-.53,.38-.72,.64-.19,.25-.29,.51-.29,.76,0,.13,.08,.19,.23,.19Z"/><path class="c" d="M365.92,137.78c-.39,0-.76-.06-1.1-.18-.34-.12-.63-.29-.87-.5-.06-.14-.11-.37-.14-.7-.03-.33-.05-.6-.07-.82,0-.11,.08-.17,.25-.17,.05,0,.1,0,.14,.03,.04,.02,.07,.05,.09,.1,.16,.62,.43,1.06,.79,1.33,.36,.27,.72,.4,1.09,.4s.68-.12,.94-.37,.39-.55,.39-.92c0-.34-.11-.64-.34-.88-.23-.25-.63-.55-1.2-.9-.43-.27-.78-.52-1.04-.76-.27-.24-.46-.49-.58-.74-.12-.25-.18-.54-.18-.85,0-.41,.1-.77,.29-1.1,.19-.33,.48-.59,.86-.79s.85-.29,1.42-.29c.38,0,.7,.04,.95,.11,.25,.08,.44,.16,.57,.25,.1,.14,.19,.36,.26,.66,.07,.3,.1,.58,.1,.85,0,.09-.06,.13-.19,.13-.08,0-.15-.02-.22-.05-.07-.03-.12-.07-.14-.12-.17-.42-.37-.74-.62-.96-.25-.22-.55-.33-.92-.33-.32,0-.6,.09-.85,.29-.25,.19-.37,.47-.37,.84,0,.29,.09,.55,.28,.78,.18,.23,.53,.49,1.04,.78,.73,.42,1.28,.81,1.64,1.17,.36,.36,.54,.84,.54,1.43,0,.68-.26,1.24-.78,1.67s-1.19,.65-2.01,.65Z"/><path class="c" d="M373.36,137.8c-.7,0-1.3-.17-1.82-.51-.52-.34-.92-.83-1.22-1.45s-.44-1.35-.44-2.18c0-.73,.17-1.4,.5-2s.78-1.09,1.34-1.45c.56-.37,1.17-.55,1.82-.55,.51,0,.96,.1,1.35,.3,.39,.2,.7,.48,.92,.84,.22,.36,.33,.78,.33,1.25,0,.39-.19,.59-.57,.59h-4.01c-.18,0-.3,.05-.37,.14-.07,.09-.1,.28-.1,.56,0,.61,.13,1.16,.4,1.66,.27,.5,.62,.9,1.06,1.2s.93,.45,1.46,.45c.38,0,.72-.07,1.04-.22,.31-.15,.59-.36,.83-.64,.05-.06,.09-.11,.11-.12,.02-.02,.06-.03,.09-.03,.1,0,.15,.06,.15,.19,0,.24-.11,.51-.34,.8-.19,.24-.42,.45-.68,.63-.27,.18-.56,.31-.87,.41-.32,.09-.65,.14-.99,.14Zm-1.75-5.76h1.73c.3,0,.56,0,.78-.02,.22-.01,.42-.04,.63-.08,.06-.01,.1-.05,.12-.12,.02-.07,.03-.17,.03-.29,0-.37-.16-.68-.48-.94-.32-.26-.71-.39-1.15-.39-.29,0-.58,.09-.87,.26-.29,.17-.53,.38-.72,.64-.19,.25-.29,.51-.29,.76,0,.13,.08,.19,.23,.19Z"/><path class="c" d="M378.95,137.78c-.23,0-.46-.09-.69-.27s-.43-.39-.59-.65c-.16-.25-.24-.49-.24-.72,0-.41,.11-.72,.32-.95,.21-.23,.56-.44,1.03-.63l1.94-.8c.25-.1,.4-.19,.45-.27,.04-.08,.07-.24,.09-.49l.04-1.22c.01-.33-.08-.61-.28-.86-.2-.24-.48-.36-.84-.36-.19,0-.38,.03-.57,.09-.19,.06-.35,.15-.48,.25-.08,.05-.13,.13-.15,.23-.03,.1-.04,.21-.04,.32,0,.05,0,.11,0,.17,0,.06,0,.12,0,.17,0,.06-.08,.15-.24,.26s-.34,.2-.53,.29c-.2,.08-.36,.12-.48,.12-.06,0-.11-.02-.15-.05-.04-.03-.06-.07-.06-.12,0-.2,.07-.42,.2-.66,.13-.23,.32-.45,.56-.66,.29-.27,.61-.5,.95-.7,.34-.2,.68-.36,1.01-.48,.33-.11,.62-.17,.87-.17,.46,0,.83,.16,1.13,.48,.3,.32,.44,.73,.43,1.21l-.09,4.56c-.01,.27,.05,.48,.18,.65,.13,.16,.3,.25,.5,.25,.32,0,.55-.07,.7-.21,.06-.06,.11-.1,.15-.1,.06,0,.11,.02,.15,.06s.06,.09,.06,.15c0,.14-.07,.28-.21,.42-.2,.2-.42,.36-.66,.49-.23,.12-.45,.18-.66,.18-.58,0-1.04-.33-1.39-.99h-.06c-.42,.34-.82,.59-1.2,.75s-.77,.24-1.18,.24Zm.89-.91c.25,0,.47-.04,.65-.12,.18-.08,.34-.19,.48-.33,.06-.06,.12-.15,.16-.26,.04-.11,.07-.28,.09-.52l.04-.93c.01-.14,0-.24-.02-.3s-.08-.09-.15-.09c-.03,0-.07,0-.13,.02-.06,.01-.15,.04-.25,.08-.67,.24-1.14,.49-1.4,.75s-.39,.5-.39,.71c0,.33,.1,.58,.29,.75s.41,.26,.64,.26Z"/><path class="c" d="M385.24,137.57c-.13,0-.22-.02-.28-.05-.06-.03-.1-.09-.1-.16,0-.1,.04-.17,.11-.2,.08-.03,.18-.07,.32-.1,.24-.06,.42-.16,.54-.28s.18-.27,.18-.45v-4.08c0-.34-.05-.64-.15-.89-.1-.25-.31-.41-.63-.47-.05-.01-.09-.04-.13-.09s-.06-.1-.06-.15c0-.13,.06-.2,.17-.23,.33-.1,.67-.25,1.04-.45,.36-.2,.64-.36,.85-.48,.08-.05,.14-.08,.18-.1,.04-.02,.08-.03,.1-.03,.06,0,.09,.04,.09,.13,0,.04,0,.13,0,.29,0,.15-.01,.33-.02,.53,0,.2-.02,.41-.03,.61,0,.03,.01,.04,.04,.04,.2-.25,.43-.47,.67-.67,.25-.19,.5-.34,.76-.46,.26-.11,.51-.17,.75-.17,.27,0,.48,.06,.66,.17,.17,.11,.26,.26,.26,.44,0,.13-.04,.27-.1,.42-.07,.15-.16,.29-.28,.4-.11,.11-.23,.17-.36,.17-.08,0-.16-.02-.25-.05s-.18-.07-.29-.12c-.1-.04-.2-.08-.3-.11s-.2-.06-.3-.06c-.3,0-.6,.11-.88,.32-.29,.22-.43,.64-.43,1.27v3.84c0,.16,.09,.3,.27,.41,.18,.11,.42,.21,.74,.31,.14,.04,.25,.08,.32,.11,.08,.04,.11,.1,.11,.19,0,.14-.13,.21-.38,.21-.38,0-.67-.02-.86-.05-.2-.03-.46-.05-.79-.05-.21,0-.39,0-.52,.02s-.27,.03-.42,.05c-.15,.02-.34,.03-.6,.03Z"/><path class="c" d="M394.7,137.8c-.63,0-1.21-.16-1.72-.48-.51-.32-.92-.77-1.22-1.33s-.45-1.19-.45-1.89c0-.82,.18-1.57,.54-2.24,.36-.67,.85-1.21,1.45-1.61,.61-.4,1.28-.6,2.01-.6,.82,0,1.54,.22,2.17,.67,.15,.11,.23,.23,.23,.36,0,.1-.04,.22-.13,.34-.09,.13-.2,.23-.32,.31-.13,.08-.25,.12-.36,.12-.06,0-.13-.02-.19-.07-.06-.04-.13-.09-.21-.14-.28-.22-.59-.42-.93-.61-.34-.19-.63-.29-.85-.29-.62,0-1.12,.29-1.51,.86-.39,.58-.58,1.33-.58,2.27,0,.6,.13,1.13,.39,1.62s.61,.86,1.04,1.14c.44,.28,.92,.42,1.45,.42,.37,0,.68-.06,.95-.18,.27-.12,.55-.33,.85-.64,.03-.03,.06-.05,.09-.07,.04-.02,.07-.03,.1-.03,.14,0,.21,.09,.21,.27,0,.08-.02,.16-.07,.26-.04,.09-.12,.21-.22,.33-.2,.25-.44,.47-.72,.66-.28,.18-.59,.32-.92,.41-.34,.09-.7,.13-1.09,.13Z"/><path class="c" d="M399.13,137.57c-.25,0-.38-.07-.38-.21,0-.11,.15-.21,.44-.3,.19-.06,.37-.15,.54-.25s.26-.28,.28-.53v-9.52c0-.34-.06-.64-.17-.9-.11-.26-.34-.42-.67-.47-.11-.03-.17-.11-.17-.27,0-.11,.05-.19,.15-.23,.18-.06,.39-.13,.64-.21s.5-.16,.77-.26c.27-.1,.5-.19,.7-.28,.05-.02,.09-.04,.11-.04,.04,0,.07,.01,.09,.04,.03,.03,.04,.06,.04,.1,0,.08-.02,.18-.05,.32-.03,.14-.06,.38-.08,.72-.03,.34-.04,.85-.04,1.54v3.31c0,.2,0,.35,.03,.44,.02,.09,.05,.18,.1,.27,.2-.15,.45-.32,.75-.5,.3-.18,.63-.34,1-.48,.37-.14,.75-.21,1.14-.21,.62,0,1.14,.24,1.55,.73,.41,.49,.62,1.11,.62,1.85v3.99c0,.25,.08,.44,.25,.56s.34,.21,.53,.28c.14,.04,.25,.08,.32,.12,.08,.04,.11,.1,.11,.18,0,.14-.13,.21-.38,.21s-.45,0-.58-.03c-.13-.02-.26-.03-.38-.05-.12-.01-.29-.02-.52-.02-.22,0-.39,0-.51,.02-.13,.01-.26,.03-.39,.05-.13,.02-.33,.03-.58,.03s-.38-.07-.38-.21c0-.09,.04-.15,.11-.18,.08-.03,.18-.07,.32-.12,.19-.06,.36-.16,.51-.28,.15-.12,.23-.31,.23-.56v-3.88c0-.32-.09-.6-.28-.86s-.41-.47-.67-.62c-.27-.15-.54-.23-.82-.23-.24,0-.52,.04-.84,.1-.32,.07-.56,.17-.74,.31-.2,.17-.34,.34-.41,.51-.07,.18-.1,.46-.1,.86v3.86c.01,.25,.09,.43,.24,.53s.31,.18,.5,.25c.14,.04,.24,.08,.31,.12,.07,.04,.1,.1,.1,.18,0,.14-.13,.21-.38,.21s-.44,0-.57-.03c-.13-.02-.25-.03-.36-.05s-.29-.02-.51-.02c-.22,0-.39,0-.52,.02-.13,.01-.27,.03-.42,.05-.15,.02-.35,.03-.6,.03Z"/><path class="c" d="M412.98,137.61c-.17,0-.3-.02-.4-.05-.1-.03-.15-.09-.15-.16,0-.15,.21-.27,.63-.34,.48-.09,.83-.23,1.05-.44,.22-.2,.33-.54,.33-1.01v-8.02c0-.57-.07-1.01-.22-1.31-.15-.3-.46-.5-.94-.59-.21-.04-.37-.09-.47-.15s-.15-.14-.15-.23c0-.08,.05-.13,.15-.16s.23-.05,.4-.05h.77c.17,0,.33,0,.48,0,.15,0,.35,0,.61,0s.51,0,.77-.03c.26-.02,.5-.04,.73-.06,.23-.02,.43-.03,.61-.03,1.44,0,2.61,.3,3.49,.89,.88,.6,1.32,1.43,1.32,2.49,0,.77-.15,1.49-.46,2.14-.3,.65-.77,1.17-1.4,1.57s-1.43,.59-2.4,.59c-.28,0-.49-.04-.64-.12s-.22-.16-.22-.24c0-.05,.03-.11,.1-.17,.07-.06,.14-.09,.2-.09s.16,0,.29,.02c.13,.01,.33,.02,.58,.02,.76,0,1.33-.32,1.72-.95,.39-.63,.58-1.51,.58-2.62,0-1.01-.3-1.76-.89-2.25-.6-.49-1.36-.73-2.28-.73-.35,0-.65,.06-.87,.18-.23,.12-.34,.33-.34,.62v9.06c0,.46,.09,.82,.29,1.1,.19,.28,.52,.46,.99,.55,.22,.04,.37,.08,.48,.13,.1,.05,.15,.12,.15,.21,0,.08-.05,.13-.15,.16-.1,.03-.23,.05-.4,.05-.34,0-.6-.01-.79-.04s-.35-.05-.49-.07c-.15-.02-.34-.03-.58-.03-.32,0-.6,0-.84,.03-.25,.02-.49,.04-.74,.07s-.54,.04-.88,.04Z"/><path class="c" d="M423.73,137.78c-.23,0-.46-.09-.69-.27s-.43-.39-.59-.65c-.16-.25-.24-.49-.24-.72,0-.41,.11-.72,.32-.95,.21-.23,.56-.44,1.03-.63l1.94-.8c.25-.1,.4-.19,.45-.27,.04-.08,.07-.24,.09-.49l.04-1.22c.01-.33-.08-.61-.28-.86-.2-.24-.48-.36-.84-.36-.19,0-.38,.03-.57,.09-.19,.06-.35,.15-.48,.25-.08,.05-.13,.13-.15,.23-.03,.1-.04,.21-.04,.32,0,.05,0,.11,0,.17,0,.06,0,.12,0,.17,0,.06-.08,.15-.24,.26s-.34,.2-.53,.29c-.2,.08-.36,.12-.48,.12-.06,0-.11-.02-.15-.05-.04-.03-.06-.07-.06-.12,0-.2,.07-.42,.2-.66,.13-.23,.32-.45,.56-.66,.29-.27,.61-.5,.95-.7,.34-.2,.68-.36,1.01-.48,.33-.11,.62-.17,.87-.17,.46,0,.83,.16,1.13,.48,.3,.32,.44,.73,.43,1.21l-.09,4.56c-.01,.27,.05,.48,.18,.65,.13,.16,.3,.25,.5,.25,.32,0,.55-.07,.7-.21,.06-.06,.11-.1,.15-.1,.06,0,.11,.02,.15,.06s.06,.09,.06,.15c0,.14-.07,.28-.21,.42-.2,.2-.42,.36-.66,.49-.23,.12-.45,.18-.66,.18-.58,0-1.04-.33-1.39-.99h-.06c-.42,.34-.82,.59-1.2,.75s-.77,.24-1.18,.24Zm.89-.91c.25,0,.47-.04,.65-.12,.18-.08,.34-.19,.48-.33,.06-.06,.12-.15,.16-.26,.04-.11,.07-.28,.09-.52l.04-.93c.01-.14,0-.24-.02-.3s-.08-.09-.15-.09c-.03,0-.07,0-.13,.02-.06,.01-.15,.04-.25,.08-.67,.24-1.14,.49-1.4,.75s-.39,.5-.39,.71c0,.33,.1,.58,.29,.75s.41,.26,.64,.26Z"/><path class="c" d="M429.85,142.93c-.06,0-.15,0-.25-.03-.1-.02-.15-.07-.15-.14,0-.1,.05-.17,.14-.22,.09-.04,.19-.08,.29-.12,.19-.06,.37-.14,.55-.22,.18-.08,.27-.25,.27-.5v-9.63c0-.1-.03-.25-.09-.46-.06-.2-.15-.4-.28-.59s-.3-.3-.51-.34c-.05-.01-.09-.04-.11-.09s-.04-.1-.04-.15c0-.06,.01-.11,.04-.15s.06-.06,.09-.08c.48-.11,.89-.24,1.24-.37s.67-.26,.97-.39c.01,0,.02,0,.02,0,0,0,0,0,.02,0,.03,0,.05,.02,.08,.06s.04,.08,.04,.11c0,.11-.02,.29-.05,.54s-.05,.45-.05,.6c0,.1,0,.16,.02,.17,.13-.13,.36-.29,.69-.48s.72-.37,1.15-.53c.43-.16,.84-.24,1.24-.24,.66,0,1.22,.17,1.68,.52,.46,.35,.82,.8,1.06,1.35,.25,.55,.37,1.12,.37,1.72s-.11,1.12-.32,1.66c-.22,.54-.52,1.02-.91,1.45s-.85,.78-1.37,1.04c-.52,.26-1.08,.39-1.67,.39-.18,0-.39-.03-.64-.08-.25-.06-.49-.13-.72-.22s-.42-.19-.54-.3c-.01,0-.03,.07-.04,.22-.01,.14-.02,.3-.03,.46,0,.16,0,.26,0,.29v3.55c0,.17,.07,.29,.2,.39s.29,.17,.46,.21,.32,.09,.45,.12c.1,.04,.2,.08,.29,.12,.09,.04,.14,.12,.14,.22,0,.08-.05,.12-.15,.14-.1,.02-.19,.03-.27,.03-.37,0-.67-.02-.92-.05-.25-.03-.54-.05-.86-.05-.22,0-.39,0-.52,.02-.13,.01-.27,.03-.41,.05-.14,.02-.33,.03-.59,.03Zm4.45-5.74c.19,0,.42-.06,.69-.17s.54-.3,.82-.55c.27-.25,.5-.6,.68-1.03s.28-.96,.28-1.6c0-.73-.09-1.32-.29-1.77-.19-.44-.42-.78-.7-1.01-.28-.23-.56-.38-.86-.46-.29-.08-.54-.11-.74-.11-.3,0-.62,.06-.94,.19-.32,.13-.6,.27-.82,.43-.22,.16-.33,.28-.33,.37,0,.28,0,.56,0,.85,0,.29-.01,.56-.02,.83,0,.27-.01,.5-.02,.71,0,.21,0,.37,0,.48,0,.51,.12,.98,.35,1.41,.23,.43,.53,.78,.87,1.04,.35,.26,.69,.39,1.04,.39Z"/><path class="c" d="M443,137.8c-.7,0-1.3-.17-1.82-.51-.52-.34-.92-.83-1.22-1.45s-.44-1.35-.44-2.18c0-.73,.17-1.4,.5-2s.78-1.09,1.34-1.45c.56-.37,1.17-.55,1.82-.55,.51,0,.96,.1,1.35,.3,.39,.2,.7,.48,.92,.84,.22,.36,.33,.78,.33,1.25,0,.39-.19,.59-.57,.59h-4.01c-.18,0-.3,.05-.37,.14-.07,.09-.1,.28-.1,.56,0,.61,.13,1.16,.4,1.66,.27,.5,.62,.9,1.06,1.2s.93,.45,1.46,.45c.38,0,.72-.07,1.04-.22,.31-.15,.59-.36,.83-.64,.05-.06,.09-.11,.11-.12,.02-.02,.06-.03,.09-.03,.1,0,.15,.06,.15,.19,0,.24-.11,.51-.34,.8-.19,.24-.42,.45-.68,.63-.27,.18-.56,.31-.87,.41-.32,.09-.65,.14-.99,.14Zm-1.75-5.76h1.73c.3,0,.56,0,.78-.02,.22-.01,.42-.04,.63-.08,.06-.01,.1-.05,.12-.12,.02-.07,.03-.17,.03-.29,0-.37-.16-.68-.48-.94-.32-.26-.71-.39-1.15-.39-.29,0-.58,.09-.87,.26-.29,.17-.53,.38-.72,.64-.19,.25-.29,.51-.29,.76,0,.13,.08,.19,.23,.19Z"/><path class="c" d="M447.29,137.57c-.13,0-.22-.02-.28-.05-.06-.03-.1-.09-.1-.16,0-.1,.04-.17,.11-.2,.08-.03,.18-.07,.32-.1,.24-.06,.42-.16,.54-.28s.18-.27,.18-.45v-4.08c0-.34-.05-.64-.15-.89-.1-.25-.31-.41-.63-.47-.05-.01-.09-.04-.13-.09s-.06-.1-.06-.15c0-.13,.06-.2,.17-.23,.33-.1,.67-.25,1.04-.45,.36-.2,.64-.36,.85-.48,.08-.05,.14-.08,.18-.1,.04-.02,.08-.03,.1-.03,.06,0,.09,.04,.09,.13,0,.04,0,.13,0,.29,0,.15-.01,.33-.02,.53,0,.2-.02,.41-.03,.61,0,.03,.01,.04,.04,.04,.2-.25,.43-.47,.67-.67,.25-.19,.5-.34,.76-.46,.26-.11,.51-.17,.75-.17,.27,0,.48,.06,.66,.17,.17,.11,.26,.26,.26,.44,0,.13-.04,.27-.1,.42-.07,.15-.16,.29-.28,.4-.11,.11-.23,.17-.36,.17-.08,0-.16-.02-.25-.05s-.18-.07-.29-.12c-.1-.04-.2-.08-.3-.11s-.2-.06-.3-.06c-.3,0-.6,.11-.88,.32-.29,.22-.43,.64-.43,1.27v3.84c0,.16,.09,.3,.27,.41,.18,.11,.42,.21,.74,.31,.14,.04,.25,.08,.32,.11,.08,.04,.11,.1,.11,.19,0,.14-.13,.21-.38,.21-.38,0-.67-.02-.86-.05-.2-.03-.46-.05-.79-.05-.21,0-.39,0-.52,.02s-.27,.03-.42,.05c-.15,.02-.34,.03-.6,.03Z"/><path class="c" d="M455.44,137.78c-.39,0-.76-.06-1.1-.18-.34-.12-.63-.29-.87-.5-.06-.14-.11-.37-.14-.7-.03-.33-.05-.6-.07-.82,0-.11,.08-.17,.25-.17,.05,0,.1,0,.14,.03,.04,.02,.07,.05,.09,.1,.16,.62,.43,1.06,.79,1.33,.36,.27,.72,.4,1.09,.4s.68-.12,.94-.37,.39-.55,.39-.92c0-.34-.11-.64-.34-.88-.23-.25-.63-.55-1.2-.9-.43-.27-.78-.52-1.04-.76-.27-.24-.46-.49-.58-.74-.12-.25-.18-.54-.18-.85,0-.41,.1-.77,.29-1.1,.19-.33,.48-.59,.86-.79s.85-.29,1.42-.29c.38,0,.7,.04,.95,.11,.25,.08,.44,.16,.57,.25,.1,.14,.19,.36,.26,.66,.07,.3,.1,.58,.1,.85,0,.09-.06,.13-.19,.13-.08,0-.15-.02-.22-.05-.07-.03-.12-.07-.14-.12-.17-.42-.37-.74-.62-.96-.25-.22-.55-.33-.92-.33-.32,0-.6,.09-.85,.29-.25,.19-.37,.47-.37,.84,0,.29,.09,.55,.28,.78,.18,.23,.53,.49,1.04,.78,.73,.42,1.28,.81,1.64,1.17,.36,.36,.54,.84,.54,1.43,0,.68-.26,1.24-.78,1.67s-1.19,.65-2.01,.65Z"/><path class="c" d="M466.71,137.61c-.17,0-.3-.02-.4-.05-.1-.03-.15-.09-.15-.16,0-.09,.05-.16,.15-.21,.1-.05,.26-.09,.47-.13,.48-.09,.85-.24,1.1-.47,.25-.22,.38-.56,.38-1.02v-7.37c0-.58-.01-1.03-.04-1.34s-.07-.53-.12-.66c-.06-.13-.14-.2-.24-.21-.18-.04-.36-.06-.56-.07-.2,0-.46,0-.79,0h-.89c-.3,0-.61,.06-.9,.18-.3,.12-.52,.31-.66,.56-.04,.06-.1,.16-.19,.28-.09,.12-.18,.22-.29,.31-.1,.09-.2,.13-.3,.13-.05,0-.09-.03-.11-.08-.02-.05-.03-.11-.03-.17,0-.13,.03-.25,.1-.38,.18-.37,.31-.69,.39-.98,.08-.29,.15-.62,.2-1.02,.03-.21,.07-.34,.14-.38,.07-.04,.13-.06,.18-.06s.13,.08,.24,.23c.11,.15,.19,.28,.24,.38,.08,.13,.25,.22,.52,.29s.54,.09,.81,.09h6.69c.44,0,.8-.03,1.08-.08,.28-.05,.52-.12,.72-.21,.15-.08,.28-.16,.37-.25,.09-.09,.22-.13,.37-.13,.04,0,.07,.05,.1,.14s.04,.19,.04,.29c0,.06,0,.15-.03,.27-.02,.11-.03,.2-.05,.27-.04,.23-.07,.39-.1,.49-.03,.1-.05,.19-.07,.27-.01,.08-.02,.2-.02,.36v.23c0,.11-.03,.24-.08,.39s-.13,.22-.23,.22c-.09,0-.16-.07-.21-.21-.05-.14-.1-.33-.15-.57-.05-.27-.2-.48-.46-.64-.25-.16-.68-.24-1.29-.24h-1.92c-.28,0-.49,.04-.63,.11-.14,.08-.23,.27-.27,.57-.04,.3-.06,.8-.06,1.5v7.47c0,.46,.13,.8,.4,1.02,.27,.22,.63,.38,1.1,.47,.22,.04,.37,.08,.48,.13,.1,.05,.15,.12,.15,.21,0,.08-.05,.13-.15,.16-.1,.03-.23,.05-.4,.05-.34,0-.62,0-.84-.03-.22-.02-.43-.04-.64-.05-.2-.01-.45-.02-.74-.02-.32,0-.59,0-.83,.02-.24,.01-.48,.03-.72,.05-.25,.02-.54,.03-.88,.03Z"/><path class="c" d="M477.83,137.78c-.71,0-1.35-.16-1.92-.49-.57-.33-1.02-.78-1.36-1.36-.34-.58-.5-1.23-.5-1.97,0-.53,.1-1.05,.31-1.56,.21-.51,.5-.97,.88-1.39s.82-.75,1.33-1c.51-.25,1.05-.37,1.63-.37,.73,0,1.4,.18,1.99,.53s1.06,.82,1.41,1.4c.35,.58,.52,1.21,.52,1.89,0,.73-.16,1.43-.48,2.09-.32,.66-.8,1.19-1.43,1.61-.63,.41-1.42,.62-2.38,.62Zm.4-.57c.43,0,.82-.08,1.16-.25,.34-.17,.61-.43,.8-.8,.15-.29,.25-.65,.3-1.06,.05-.42,.08-.81,.08-1.18,0-.61-.11-1.19-.33-1.76s-.53-1.03-.93-1.39c-.4-.36-.87-.54-1.42-.54-.34,0-.65,.05-.92,.16s-.52,.31-.75,.6c-.25,.32-.42,.7-.49,1.16s-.11,.91-.11,1.37c0,.62,.11,1.21,.34,1.78,.23,.56,.54,1.02,.93,1.38s.84,.53,1.35,.53Z"/><path class="c" d="M486.49,143.02c-1.08,0-1.93-.21-2.56-.62-.63-.41-.94-.97-.94-1.66,0-.33,.05-.61,.15-.84,.1-.23,.26-.42,.47-.59,.18-.15,.42-.34,.71-.58,.3-.23,.6-.48,.92-.73l.8,.04c-.61,.39-1.03,.77-1.27,1.12-.24,.35-.36,.79-.36,1.29s.22,.93,.67,1.28c.45,.35,1,.52,1.66,.52,.75,0,1.35-.17,1.81-.51,.32-.24,.56-.55,.74-.94,.18-.39,.27-.79,.27-1.23,0-.28-.1-.51-.29-.69-.2-.18-.5-.33-.92-.45-.42-.11-.96-.19-1.63-.23-1.19-.09-2.02-.25-2.48-.48-.46-.23-.69-.58-.69-1.06,0-.13,.04-.24,.1-.35s.18-.22,.33-.35c.29-.23,.51-.4,.65-.5,.14-.11,.24-.2,.31-.28,.07-.08,.14-.17,.2-.28l.65,.32c-.28,.1-.51,.24-.7,.41-.19,.17-.29,.33-.29,.46,0,.18,.1,.33,.29,.47,.19,.13,.47,.24,.84,.31s.82,.13,1.35,.17c1.17,.06,2.03,.25,2.6,.57s.86,.77,.86,1.35c0,.49-.12,.98-.37,1.45-.25,.48-.57,.91-.98,1.3s-.86,.71-1.36,.94-1.01,.35-1.53,.35Zm.11-7.52c-.52,0-1.01-.13-1.48-.4s-.85-.62-1.15-1.05c-.3-.44-.45-.92-.45-1.43,0-.59,.15-1.12,.46-1.57,.31-.45,.72-.8,1.23-1.05,.51-.25,1.04-.38,1.62-.38,.37,0,.69,.05,.96,.14,.27,.1,.54,.18,.81,.26,.3,.09,.54,.14,.72,.16,.18,.02,.36,.03,.55,.03,.15,0,.34,0,.57-.03,.23-.02,.39-.03,.47-.03,.17,0,.25,.09,.25,.29,0,.11-.06,.23-.19,.36-.06,.06-.11,.09-.15,.09h-.51c-.34,0-.53,.05-.57,.15-.01,.05-.03,.12-.05,.22-.02,.1-.04,.2-.05,.31-.01,.11-.02,.23-.02,.34,0,.65-.14,1.24-.42,1.79-.28,.54-.65,.98-1.1,1.31s-.96,.49-1.5,.49Zm.11-.67c.48,0,.88-.24,1.2-.73,.32-.49,.48-1.09,.48-1.81,0-.37-.09-.71-.26-1.04s-.39-.58-.67-.78-.57-.29-.88-.29c-.29,0-.57,.1-.83,.31s-.47,.48-.63,.81c-.16,.33-.24,.69-.24,1.08,0,.44,.08,.85,.25,1.23,.16,.37,.39,.67,.67,.89,.28,.22,.58,.33,.91,.33Z"/><path class="c" d="M495.1,137.8c-.7,0-1.3-.17-1.82-.51-.52-.34-.92-.83-1.22-1.45s-.44-1.35-.44-2.18c0-.73,.17-1.4,.5-2s.78-1.09,1.34-1.45c.56-.37,1.17-.55,1.82-.55,.51,0,.96,.1,1.35,.3,.39,.2,.7,.48,.92,.84,.22,.36,.33,.78,.33,1.25,0,.39-.19,.59-.57,.59h-4.01c-.18,0-.3,.05-.37,.14-.07,.09-.1,.28-.1,.56,0,.61,.13,1.16,.4,1.66,.27,.5,.62,.9,1.06,1.2s.93,.45,1.46,.45c.38,0,.72-.07,1.04-.22,.31-.15,.59-.36,.83-.64,.05-.06,.09-.11,.11-.12,.02-.02,.06-.03,.09-.03,.1,0,.15,.06,.15,.19,0,.24-.11,.51-.34,.8-.19,.24-.42,.45-.68,.63-.27,.18-.56,.31-.87,.41-.32,.09-.65,.14-.99,.14Zm-1.75-5.76h1.73c.3,0,.56,0,.78-.02,.22-.01,.42-.04,.63-.08,.06-.01,.1-.05,.12-.12,.02-.07,.03-.17,.03-.29,0-.37-.16-.68-.48-.94-.32-.26-.71-.39-1.15-.39-.29,0-.58,.09-.87,.26-.29,.17-.53,.38-.72,.64-.19,.25-.29,.51-.29,.76,0,.13,.08,.19,.23,.19Z"/><path class="c" d="M502.05,137.78c-.62,0-1.11-.19-1.45-.57-.35-.38-.52-.94-.52-1.69v-4.41c0-.1-.04-.17-.11-.22-.08-.04-.24-.07-.49-.07h-.11c-.06,0-.12-.04-.16-.12-.04-.08-.07-.17-.07-.26,0-.02,.02-.06,.06-.11s.06-.08,.08-.1c.25-.18,.48-.35,.69-.53,.21-.18,.4-.35,.57-.52,.17-.17,.31-.33,.43-.47,.06-.06,.12-.12,.16-.16,.04-.04,.1-.07,.16-.07s.12,.01,.18,.04c.06,.03,.08,.08,.07,.17l-.09,.86c-.01,.14,.02,.23,.09,.29,.08,.05,.2,.08,.36,.08h2.17c.05,0,.09,.04,.13,.12,.04,.08,.06,.18,.06,.29s-.02,.22-.06,.33-.08,.16-.13,.16h-1.88c-.32,0-.52,.03-.62,.08-.1,.05-.14,.2-.14,.46v3.74c0,.51,.11,.91,.32,1.2,.22,.29,.53,.44,.93,.44,.37,0,.65-.03,.85-.08,.2-.06,.39-.14,.55-.26,.02-.03,.05-.04,.08-.04,.05,0,.09,.03,.1,.09,.02,.06,.03,.12,.03,.18s-.1,.19-.31,.38c-.21,.19-.48,.37-.82,.53-.34,.17-.7,.25-1.09,.25Z"/><path class="c" d="M505.17,137.57c-.25,0-.38-.07-.38-.21,0-.11,.15-.21,.44-.3,.19-.06,.37-.15,.54-.25s.26-.28,.28-.53v-9.52c0-.34-.06-.64-.17-.9-.11-.26-.34-.42-.67-.47-.11-.03-.17-.11-.17-.27,0-.11,.05-.19,.15-.23,.18-.06,.39-.13,.64-.21s.5-.16,.77-.26c.27-.1,.5-.19,.7-.28,.05-.02,.09-.04,.11-.04,.04,0,.07,.01,.09,.04,.03,.03,.04,.06,.04,.1,0,.08-.02,.18-.05,.32-.03,.14-.06,.38-.08,.72-.03,.34-.04,.85-.04,1.54v3.31c0,.2,0,.35,.03,.44,.02,.09,.05,.18,.1,.27,.2-.15,.45-.32,.75-.5,.3-.18,.63-.34,1-.48,.37-.14,.75-.21,1.14-.21,.62,0,1.14,.24,1.55,.73,.41,.49,.62,1.11,.62,1.85v3.99c0,.25,.08,.44,.25,.56s.34,.21,.53,.28c.14,.04,.25,.08,.32,.12,.08,.04,.11,.1,.11,.18,0,.14-.13,.21-.38,.21s-.45,0-.58-.03c-.13-.02-.26-.03-.38-.05-.12-.01-.29-.02-.52-.02-.22,0-.39,0-.51,.02-.13,.01-.26,.03-.39,.05-.13,.02-.33,.03-.58,.03s-.38-.07-.38-.21c0-.09,.04-.15,.11-.18,.08-.03,.18-.07,.32-.12,.19-.06,.36-.16,.51-.28,.15-.12,.23-.31,.23-.56v-3.88c0-.32-.09-.6-.28-.86s-.41-.47-.67-.62c-.27-.15-.54-.23-.82-.23-.24,0-.52,.04-.84,.1-.32,.07-.56,.17-.74,.31-.2,.17-.34,.34-.41,.51-.07,.18-.1,.46-.1,.86v3.86c.01,.25,.09,.43,.24,.53s.31,.18,.5,.25c.14,.04,.24,.08,.31,.12,.07,.04,.1,.1,.1,.18,0,.14-.13,.21-.38,.21s-.44,0-.57-.03c-.13-.02-.25-.03-.36-.05s-.29-.02-.51-.02c-.22,0-.39,0-.52,.02-.13,.01-.27,.03-.42,.05-.15,.02-.35,.03-.6,.03Z"/><path class="c" d="M518.26,137.8c-.7,0-1.3-.17-1.82-.51-.52-.34-.92-.83-1.22-1.45s-.44-1.35-.44-2.18c0-.73,.17-1.4,.5-2s.78-1.09,1.34-1.45c.56-.37,1.17-.55,1.82-.55,.51,0,.96,.1,1.35,.3,.39,.2,.7,.48,.92,.84,.22,.36,.33,.78,.33,1.25,0,.39-.19,.59-.57,.59h-4.01c-.18,0-.3,.05-.37,.14-.07,.09-.1,.28-.1,.56,0,.61,.13,1.16,.4,1.66,.27,.5,.62,.9,1.06,1.2s.93,.45,1.46,.45c.38,0,.72-.07,1.04-.22,.31-.15,.59-.36,.83-.64,.05-.06,.09-.11,.11-.12,.02-.02,.06-.03,.09-.03,.1,0,.15,.06,.15,.19,0,.24-.11,.51-.34,.8-.19,.24-.42,.45-.68,.63-.27,.18-.56,.31-.87,.41-.32,.09-.65,.14-.99,.14Zm-1.75-5.76h1.73c.3,0,.56,0,.78-.02,.22-.01,.42-.04,.63-.08,.06-.01,.1-.05,.12-.12,.02-.07,.03-.17,.03-.29,0-.37-.16-.68-.48-.94-.32-.26-.71-.39-1.15-.39-.29,0-.58,.09-.87,.26-.29,.17-.53,.38-.72,.64-.19,.25-.29,.51-.29,.76,0,.13,.08,.19,.23,.19Z"/><path class="c" d="M522.55,137.57c-.13,0-.22-.02-.28-.05-.06-.03-.1-.09-.1-.16,0-.1,.04-.17,.11-.2,.08-.03,.18-.07,.32-.1,.24-.06,.42-.16,.54-.28s.18-.27,.18-.45v-4.08c0-.34-.05-.64-.15-.89-.1-.25-.31-.41-.63-.47-.05-.01-.09-.04-.13-.09s-.06-.1-.06-.15c0-.13,.06-.2,.17-.23,.33-.1,.67-.25,1.04-.45,.36-.2,.64-.36,.85-.48,.08-.05,.14-.08,.18-.1,.04-.02,.08-.03,.1-.03,.06,0,.09,.04,.09,.13,0,.04,0,.13,0,.29,0,.15-.01,.33-.02,.53,0,.2-.02,.41-.03,.61,0,.03,.01,.04,.04,.04,.2-.25,.43-.47,.67-.67,.25-.19,.5-.34,.76-.46,.26-.11,.51-.17,.75-.17,.27,0,.48,.06,.66,.17,.17,.11,.26,.26,.26,.44,0,.13-.04,.27-.1,.42-.07,.15-.16,.29-.28,.4-.11,.11-.23,.17-.36,.17-.08,0-.16-.02-.25-.05s-.18-.07-.29-.12c-.1-.04-.2-.08-.3-.11s-.2-.06-.3-.06c-.3,0-.6,.11-.88,.32-.29,.22-.43,.64-.43,1.27v3.84c0,.16,.09,.3,.27,.41,.18,.11,.42,.21,.74,.31,.14,.04,.25,.08,.32,.11,.08,.04,.11,.1,.11,.19,0,.14-.13,.21-.38,.21-.38,0-.67-.02-.86-.05-.2-.03-.46-.05-.79-.05-.21,0-.39,0-.52,.02s-.27,.03-.42,.05c-.15,.02-.34,.03-.6,.03Z"/></g><line class="f" x1="169.3" y1="109.61" x2="519.57" y2="109.61"/></g></svg>