<?xml version="1.0" encoding="UTF-8"?><svg id="a" xmlns="http://www.w3.org/2000/svg" viewBox="0 0 142.99 39.56"><defs><style>.b{fill:#fff;}</style></defs><path class="b" d="M.6,28.28c-.19,0-.33-.05-.44-.16-.11-.11-.16-.21-.16-.32,0-.24,.2-.41,.6-.52,1.01-.27,1.84-.51,2.48-.72,.67-.24,1.15-.56,1.44-.96,.32-.43,.48-1.03,.48-1.8V8.52c0-.51-.16-.89-.48-1.16-.32-.27-.73-.45-1.24-.56-.51-.11-1.05-.17-1.64-.2-.27-.03-.51-.09-.72-.2-.21-.11-.32-.27-.32-.48,0-.19,.09-.35,.28-.48,.21-.13,.45-.21,.72-.24,1.2-.19,2.27-.41,3.2-.68,.96-.29,1.89-.89,2.8-1.8,.03-.03,.05-.04,.08-.04h.12c.13,0,.25,.04,.36,.12,.11,.05,.15,.13,.12,.24-.05,.4-.09,.84-.12,1.32-.03,.45-.04,.96-.04,1.52V24.28c0,.67,.12,1.17,.36,1.52,.27,.35,.71,.63,1.32,.84,.61,.19,1.47,.41,2.56,.68,.16,.03,.31,.09,.44,.2,.16,.08,.24,.19,.24,.32,0,.29-.19,.44-.56,.44-.75,0-1.44-.03-2.08-.08-.61-.03-1.23-.05-1.84-.08-.59-.03-1.24-.04-1.96-.04s-1.4,.01-2.04,.04c-.64,.03-1.28,.05-1.92,.08-.64,.05-1.32,.08-2.04,.08Zm31.22,.48c-1.87,0-3.67-.32-5.4-.96-1.73-.64-3.28-1.55-4.64-2.72-1.36-1.2-2.44-2.63-3.24-4.28-.77-1.68-1.16-3.53-1.16-5.56s.41-3.75,1.24-5.4c.83-1.65,1.96-3.09,3.4-4.32,1.44-1.23,3.08-2.17,4.92-2.84,1.87-.69,3.83-1.04,5.88-1.04,1.04,0,1.92,.04,2.64,.12,.72,.08,1.41,.2,2.08,.36,.69,.13,1.49,.32,2.4,.56,.4,.11,.68,.27,.84,.48,.19,.21,.29,.51,.32,.88,.05,.61,.12,1.28,.2,2,.08,.69,.13,1.56,.16,2.6,.03,.19-.07,.35-.28,.48-.19,.11-.4,.13-.64,.08-.21-.05-.36-.23-.44-.52-.27-1.01-.57-1.88-.92-2.6-.35-.75-.87-1.36-1.56-1.84-.67-.45-1.48-.79-2.44-1-.93-.24-1.95-.36-3.04-.36-1.55,0-2.99,.32-4.32,.96-1.31,.61-2.44,1.47-3.4,2.56-.93,1.07-1.67,2.28-2.2,3.64-.53,1.36-.8,2.77-.8,4.24,0,1.63,.25,3.23,.76,4.8,.53,1.57,1.28,3,2.24,4.28,.99,1.25,2.15,2.27,3.48,3.04,1.36,.75,2.87,1.12,4.52,1.12,1.92,0,3.51-.44,4.76-1.32,1.25-.88,2.32-2.11,3.2-3.68,.19-.35,.45-.52,.8-.52,.37,0,.56,.21,.56,.64,0,.21-.05,.56-.16,1.04-.11,.45-.25,.95-.44,1.48-.16,.51-.32,.96-.48,1.36-.19,.37-.35,.61-.48,.72-.11,.11-.37,.23-.8,.36-.99,.4-2.17,.69-3.56,.88-1.36,.19-2.69,.28-4,.28Zm16.8-.04c-.48,0-.97-.19-1.48-.56-.48-.37-.89-.83-1.24-1.36-.32-.53-.48-1.04-.48-1.52,0-.85,.23-1.52,.68-2,.45-.48,1.17-.92,2.16-1.32l4.08-1.68c.53-.21,.84-.4,.92-.56,.11-.16,.17-.51,.2-1.04l.08-2.56c.03-.69-.17-1.29-.6-1.8-.4-.51-.99-.76-1.76-.76-.4,0-.8,.07-1.2,.2-.4,.13-.73,.31-1,.52-.16,.11-.27,.27-.32,.48-.05,.21-.08,.44-.08,.68v.36c.03,.13,.04,.25,.04,.36,0,.13-.17,.32-.52,.56-.32,.21-.69,.41-1.12,.6-.4,.16-.73,.24-1,.24-.13,0-.24-.03-.32-.08-.08-.08-.12-.17-.12-.28,0-.43,.13-.88,.4-1.36,.29-.51,.69-.97,1.2-1.4,.61-.56,1.28-1.05,2-1.48,.72-.43,1.43-.76,2.12-1,.69-.24,1.31-.36,1.84-.36,.96,0,1.75,.35,2.36,1.04,.64,.67,.95,1.51,.92,2.52l-.2,9.6c-.03,.56,.09,1.01,.36,1.36,.29,.35,.65,.52,1.08,.52,.67,0,1.16-.15,1.48-.44,.13-.13,.24-.2,.32-.2,.13,0,.24,.04,.32,.12,.08,.08,.12,.19,.12,.32,0,.29-.15,.59-.44,.88-.43,.43-.89,.76-1.4,1-.48,.27-.93,.4-1.36,.4-1.23,0-2.2-.69-2.92-2.08h-.12c-.88,.72-1.72,1.24-2.52,1.56-.8,.35-1.63,.52-2.48,.52Zm1.88-1.92c.53,0,.99-.08,1.36-.24,.37-.19,.71-.43,1-.72,.13-.13,.24-.31,.32-.52,.11-.24,.17-.61,.2-1.12l.08-1.96c.03-.29,.01-.51-.04-.64-.05-.13-.16-.2-.32-.2-.05,0-.15,.01-.28,.04-.13,.03-.31,.08-.52,.16-1.41,.51-2.4,1.04-2.96,1.6-.53,.53-.8,1.03-.8,1.48,0,.69,.2,1.23,.6,1.6,.43,.35,.88,.52,1.36,.52Zm23.7,2.12c-.05,0-.15-.05-.28-.16-.11-.11-.16-.19-.16-.24,0-.27,.03-.64,.08-1.12,.08-.51,.12-.93,.12-1.28v-.24c-.4,.61-1.04,1.24-1.92,1.88-.88,.64-1.99,.96-3.32,.96-1.52,0-2.84-.4-3.96-1.2-1.09-.8-1.95-1.83-2.56-3.08-.59-1.25-.88-2.55-.88-3.88,0-1.55,.36-3,1.08-4.36,.72-1.36,1.75-2.47,3.08-3.32,1.36-.85,2.97-1.28,4.84-1.28,.53,0,1.07,.05,1.6,.16,.56,.08,.99,.17,1.28,.28,.24,.08,.41,.12,.52,.12,.19,0,.28-.32,.28-.96V5.52c0-1.09-.17-1.83-.52-2.2-.35-.37-.84-.61-1.48-.72-.24-.05-.36-.23-.36-.52,0-.24,.11-.4,.32-.48,1.17-.29,2.09-.57,2.76-.84,.67-.27,1.19-.48,1.56-.64,.11-.05,.2-.08,.28-.08,.11-.03,.19-.04,.24-.04,.16,0,.25,.08,.28,.24,0,.16-.03,.44-.08,.84-.03,.37-.07,.93-.12,1.68-.05,.75-.08,1.72-.08,2.92V23.76c0,.91,.07,1.57,.2,2,.13,.4,.35,.6,.64,.6,.13,0,.36-.01,.68-.04,.35-.03,.69-.05,1.04-.08,.48-.03,.72,.09,.72,.36,0,.19-.07,.36-.2,.52-.11,.13-.23,.2-.36,.2-.75,.11-1.48,.27-2.2,.48-.72,.19-1.55,.48-2.48,.88-.21,.11-.36,.17-.44,.2-.05,.03-.12,.04-.2,.04Zm-4.04-2.28c.69,0,1.37-.17,2.04-.52,.67-.37,1.25-.85,1.76-1.44l.04-7.2c0-.72-.21-1.43-.64-2.12-.4-.69-.97-1.25-1.72-1.68-.72-.45-1.57-.68-2.56-.68-.61,0-1.31,.19-2.08,.56-.77,.37-1.44,1.04-2,2-.56,.93-.84,2.29-.84,4.08,0,1.52,.23,2.75,.68,3.68,.45,.91,1,1.6,1.64,2.08,.67,.48,1.33,.81,2,1,.69,.16,1.25,.24,1.68,.24Zm18.51,2.12c-1.47,0-2.75-.36-3.84-1.08-1.09-.72-1.95-1.73-2.56-3.04-.61-1.33-.92-2.87-.92-4.6,0-1.55,.35-2.95,1.04-4.2,.72-1.28,1.67-2.31,2.84-3.08,1.17-.77,2.45-1.16,3.84-1.16,1.07,0,2.01,.21,2.84,.64,.83,.43,1.47,1.03,1.92,1.8,.48,.75,.72,1.61,.72,2.6,0,.83-.4,1.24-1.2,1.24h-8.44c-.37,0-.64,.11-.8,.32-.13,.19-.2,.57-.2,1.16,0,1.28,.28,2.45,.84,3.52,.56,1.04,1.31,1.88,2.24,2.52,.93,.61,1.96,.92,3.08,.92,.8,0,1.52-.15,2.16-.44,.67-.32,1.25-.77,1.76-1.36,.11-.13,.19-.21,.24-.24,.05-.05,.12-.08,.2-.08,.21,0,.32,.13,.32,.4,0,.51-.24,1.07-.72,1.68-.4,.51-.88,.95-1.44,1.32-.56,.37-1.17,.65-1.84,.84-.67,.21-1.36,.32-2.08,.32Zm-3.68-12.12h3.64c.64,0,1.19-.01,1.64-.04,.45-.03,.89-.08,1.32-.16,.13-.03,.21-.11,.24-.24,.05-.16,.08-.37,.08-.64,0-.77-.35-1.43-1.04-1.96-.67-.56-1.47-.84-2.4-.84-.61,0-1.23,.19-1.84,.56-.61,.35-1.12,.79-1.52,1.32-.4,.53-.6,1.07-.6,1.6,0,.27,.16,.4,.48,.4Zm12.51,11.64c-.21,0-.4-.03-.56-.08-.16-.05-.24-.17-.24-.36s.08-.32,.24-.4c.19-.08,.41-.16,.68-.24,.37-.13,.75-.28,1.12-.44,.4-.19,.6-.55,.6-1.08v-8.6c0-.72-.08-1.35-.24-1.88-.16-.56-.59-.89-1.28-1-.11-.03-.2-.08-.28-.16-.05-.08-.08-.2-.08-.36,0-.27,.11-.43,.32-.48,.72-.19,1.29-.37,1.72-.56,.43-.21,.8-.44,1.12-.68,.35-.27,.76-.55,1.24-.84,.05-.03,.11-.05,.16-.08,.05-.05,.12-.08,.2-.08,.16,0,.24,.09,.24,.28s-.04,.57-.12,1.16c-.05,.56-.08,1.03-.08,1.4,0,.27,.03,.43,.08,.48h.08c.61-.59,1.41-1.17,2.4-1.76,1.01-.61,2.29-.92,3.84-.92,.96,0,1.76,.21,2.4,.64,.64,.4,1.17,1.11,1.6,2.12h.12c.85-.77,1.83-1.43,2.92-1.96,1.09-.53,2.29-.8,3.6-.8,.88,0,1.61,.27,2.2,.8,.59,.53,1.03,1.23,1.32,2.08,.32,.85,.48,1.75,.48,2.68v8.52c0,.53,.19,.89,.56,1.08,.37,.16,.76,.31,1.16,.44,.27,.08,.48,.16,.64,.24,.19,.08,.28,.21,.28,.4,0,.16-.07,.27-.2,.32-.11,.08-.31,.12-.6,.12-.53,0-.95-.03-1.24-.08-.29-.03-.57-.05-.84-.08-.24-.03-.6-.04-1.08-.04-.45,0-.83,.01-1.12,.04-.29,.03-.6,.05-.92,.08-.32,.05-.75,.08-1.28,.08-.24,0-.44-.04-.6-.12-.13-.05-.2-.16-.2-.32,0-.21,.08-.36,.24-.44,.19-.08,.41-.15,.68-.2,.43-.11,.81-.25,1.16-.44,.37-.19,.56-.55,.56-1.08v-8.4c0-.64-.15-1.24-.44-1.8-.29-.59-.68-1.07-1.16-1.44-.48-.37-1.01-.56-1.6-.56-.67,0-1.29,.08-1.88,.24-.56,.16-1.09,.44-1.6,.84-.75,.59-1.12,1.55-1.12,2.88v8.24c0,.53,.2,.89,.6,1.08,.4,.19,.8,.33,1.2,.44,.27,.05,.48,.13,.64,.24,.19,.08,.28,.21,.28,.4,0,.16-.07,.27-.2,.32-.13,.08-.33,.12-.6,.12-.53,0-.96-.03-1.28-.08-.29-.03-.59-.05-.88-.08-.27-.03-.64-.04-1.12-.04-.45,0-.83,.01-1.12,.04-.29,.03-.6,.05-.92,.08-.32,.05-.75,.08-1.28,.08-.21,0-.4-.04-.56-.12-.16-.05-.24-.16-.24-.32,0-.21,.09-.35,.28-.4,.21-.08,.43-.16,.64-.24,.4-.13,.79-.28,1.16-.44,.4-.19,.6-.55,.6-1.08v-8.4c0-.64-.15-1.24-.44-1.8-.29-.59-.68-1.07-1.16-1.44-.48-.37-1.01-.56-1.6-.56-.67,0-1.29,.08-1.88,.24-.56,.16-1.09,.44-1.6,.84-.72,.53-1.08,1.49-1.08,2.88v8.24c0,.53,.19,.89,.56,1.08,.37,.16,.76,.31,1.16,.44,.21,.08,.41,.16,.6,.24,.21,.05,.32,.19,.32,.4,0,.16-.08,.27-.24,.32-.13,.08-.32,.12-.56,.12-.53,0-.96-.03-1.28-.08-.29-.03-.57-.05-.84-.08-.27-.03-.64-.04-1.12-.04-.45,0-.83,.01-1.12,.04-.27,.03-.56,.05-.88,.08-.29,.05-.71,.08-1.24,.08Zm30.33,11.28c-.51,0-.97-.13-1.4-.4-.43-.24-.64-.65-.64-1.24,0-.48,.11-.91,.32-1.28,.24-.35,.57-.52,1-.52,.29,0,.57,.04,.84,.12,.29,.08,.55,.12,.76,.12,.16,0,.29-.04,.4-.12,.13-.05,.25-.16,.36-.32,.29-.48,.63-1.08,1-1.8,.4-.72,.8-1.53,1.2-2.44,.43-.91,.83-1.87,1.2-2.88,.08-.24,.12-.55,.12-.92,0-.21-.01-.41-.04-.6-.03-.21-.07-.4-.12-.56l-4.64-11.72c-.19-.48-.44-.89-.76-1.24-.29-.37-.64-.61-1.04-.72-.21-.08-.43-.17-.64-.28-.19-.11-.28-.25-.28-.44,0-.16,.09-.25,.28-.28,.21-.05,.39-.08,.52-.08,.53,0,.92,.01,1.16,.04,.27,.03,.51,.07,.72,.12,.24,.03,.59,.04,1.04,.04,.48,0,.84-.01,1.08-.04,.24-.05,.49-.09,.76-.12s.67-.04,1.2-.04c.16,0,.33,.04,.52,.12,.19,.05,.28,.16,.28,.32,0,.19-.15,.37-.44,.56-.27,.16-.51,.27-.72,.32-.27,.08-.47,.23-.6,.44-.13,.19-.2,.47-.2,.84,0,.16,.04,.36,.12,.6,.08,.21,.15,.39,.2,.52l3.24,8c.05,.16,.13,.24,.24,.24,.08,0,.15-.08,.2-.24l2.76-7.32c.08-.19,.15-.43,.2-.72,.08-.32,.12-.57,.12-.76,0-.51-.08-.85-.24-1.04-.13-.21-.32-.37-.56-.48-.21-.11-.47-.24-.76-.4-.27-.19-.4-.37-.4-.56,0-.16,.09-.27,.28-.32,.21-.08,.39-.12,.52-.12,.37,0,.75,.04,1.12,.12,.4,.05,.97,.08,1.72,.08,.51,0,.87-.01,1.08-.04,.24-.05,.44-.09,.6-.12,.16-.03,.39-.04,.68-.04,.13,0,.29,.03,.48,.08,.21,.03,.32,.12,.32,.28,0,.19-.11,.33-.32,.44-.19,.11-.39,.2-.6,.28-.4,.11-.83,.43-1.28,.96-.45,.51-.81,1.08-1.08,1.72l-5.44,12.96c-.03,.08-.17,.43-.44,1.04-.24,.61-.55,1.37-.92,2.28s-.79,1.88-1.24,2.92c-.43,1.04-.84,2.04-1.24,3-.24,.53-.59,.93-1.04,1.2-.45,.29-.97,.44-1.56,.44Z"/></svg>