<svg width="26" height="21" viewBox="0 0 26 21" fill="none" xmlns="http://www.w3.org/2000/svg">
<path d="M24.9775 3.25154C24.69 2.17654 23.8425 1.32904 22.7675 1.04154C20.8175 0.519043 13 0.519043 13 0.519043C13 0.519043 5.1825 0.519043 3.2325 1.04154C2.1575 1.32904 1.31 2.17654 1.0225 3.25154C0.5 5.20154 0.5 10.519 0.5 10.519C0.5 10.519 0.5 15.8365 1.0225 17.7865C1.31 18.8615 2.1575 19.709 3.2325 19.9965C5.1825 20.519 13 20.519 13 20.519C13 20.519 20.8175 20.519 22.7675 19.9965C23.8437 19.709 24.69 18.8615 24.9775 17.7865C25.5 15.8365 25.5 10.519 25.5 10.519C25.5 10.519 25.5 5.20154 24.9775 3.25154ZM10.5 14.849V6.18904L18 10.519L10.5 14.849Z" fill="white"/>
</svg>
